<?xml version="1.0" encoding="utf-8" standalone="no"?>
<!DOCTYPE svg PUBLIC "-//W3C//DTD SVG 1.1//EN"
  "http://www.w3.org/Graphics/SVG/1.1/DTD/svg11.dtd">
<svg xmlns:xlink="http://www.w3.org/1999/xlink" width="230.197756pt" height="163.843109pt" viewBox="0 0 230.197756 163.843109" xmlns="http://www.w3.org/2000/svg" version="1.1">
 <metadata>
  <rdf:RDF xmlns:dc="http://purl.org/dc/elements/1.1/" xmlns:cc="http://creativecommons.org/ns#" xmlns:rdf="http://www.w3.org/1999/02/22-rdf-syntax-ns#">
   <cc:Work>
    <dc:type rdf:resource="http://purl.org/dc/dcmitype/StillImage"/>
    <dc:date>2026-05-31T18:51:15.915207</dc:date>
    <dc:format>image/svg+xml</dc:format>
    <dc:creator>
     <cc:Agent>
      <dc:title>Matplotlib v3.10.9, https://matplotlib.org/</dc:title>
     </cc:Agent>
    </dc:creator>
   </cc:Work>
  </rdf:RDF>
 </metadata>
 <defs>
  <style type="text/css">*{stroke-linejoin: round; stroke-linecap: butt}</style>
 </defs>
 <g id="figure_1">
  <g id="patch_1">
   <path d="M 0 163.843109 
L 230.197756 163.843109 
L 230.197756 0 
L 0 0 
z
" style="fill: #ffffff"/>
  </g>
  <g id="axes_1">
   <g id="patch_2">
    <path d="M 37.335938 142.915453 
L 222.997756 142.915453 
L 222.997756 9.859453 
L 37.335938 9.859453 
z
" style="fill: #ffffff"/>
   </g>
   <g id="matplotlib.axis_1">
    <g id="xtick_1">
     <g id="line2d_1">
      <path d="M 45.775111 142.915453 
L 45.775111 9.859453 
" clip-path="url(#p01dddcbadf)" style="fill: none; stroke-dasharray: 2,1; stroke-dashoffset: 0; stroke: #cccccc; stroke-opacity: 0.9; stroke-width: 0.5"/>
     </g>
     <g id="line2d_2">
      <defs>
       <path id="m1ba9a4b6b8" d="M 0 0 
L 0 3.5 
" style="stroke: #000000; stroke-width: 0.8"/>
      </defs>
      <g>
       <use xlink:href="#m1ba9a4b6b8" x="45.775111" y="142.915453" style="stroke: #000000; stroke-width: 0.8"/>
      </g>
     </g>
     <g id="text_1">
      <!-- 2020 -->
      <g transform="translate(36.874174 155.234359) scale(0.07 -0.07)">
       <defs>
        <path id="Verdana-32" d="M 3653 0 
L 503 0 
L 503 653 
Q 831 934 1161 1215 
Q 1491 1497 1775 1775 
Q 2375 2356 2597 2698 
Q 2819 3041 2819 3438 
Q 2819 3800 2580 4004 
Q 2341 4209 1913 4209 
Q 1628 4209 1297 4109 
Q 966 4009 650 3803 
L 619 3803 
L 619 4459 
Q 841 4569 1211 4659 
Q 1581 4750 1928 4750 
Q 2644 4750 3050 4404 
Q 3456 4059 3456 3469 
Q 3456 3203 3389 2973 
Q 3322 2744 3191 2538 
Q 3069 2344 2905 2156 
Q 2741 1969 2506 1741 
Q 2172 1413 1815 1105 
Q 1459 797 1150 534 
L 3653 534 
L 3653 0 
z
" transform="scale(0.015625)"/>
        <path id="Verdana-30" d="M 3647 2328 
Q 3647 1075 3255 489 
Q 2863 -97 2038 -97 
Q 1200 -97 814 497 
Q 428 1091 428 2322 
Q 428 3563 818 4155 
Q 1209 4747 2038 4747 
Q 2875 4747 3261 4145 
Q 3647 3544 3647 2328 
z
M 2825 909 
Q 2934 1163 2973 1505 
Q 3013 1847 3013 2328 
Q 3013 2803 2973 3153 
Q 2934 3503 2822 3747 
Q 2713 3988 2523 4109 
Q 2334 4231 2038 4231 
Q 1744 4231 1551 4109 
Q 1359 3988 1247 3741 
Q 1141 3509 1102 3137 
Q 1063 2766 1063 2322 
Q 1063 1834 1097 1506 
Q 1131 1178 1244 919 
Q 1347 675 1536 547 
Q 1725 419 2038 419 
Q 2331 419 2525 541 
Q 2719 663 2825 909 
z
" transform="scale(0.015625)"/>
       </defs>
       <use xlink:href="#Verdana-32"/>
       <use xlink:href="#Verdana-30" transform="translate(63.574219 0)"/>
       <use xlink:href="#Verdana-32" transform="translate(127.148438 0)"/>
       <use xlink:href="#Verdana-30" transform="translate(190.722656 0)"/>
      </g>
     </g>
    </g>
    <g id="xtick_2">
     <g id="line2d_3">
      <path d="M 73.218359 142.915453 
L 73.218359 9.859453 
" clip-path="url(#p01dddcbadf)" style="fill: none; stroke-dasharray: 2,1; stroke-dashoffset: 0; stroke: #cccccc; stroke-opacity: 0.9; stroke-width: 0.5"/>
     </g>
     <g id="line2d_4">
      <g>
       <use xlink:href="#m1ba9a4b6b8" x="73.218359" y="142.915453" style="stroke: #000000; stroke-width: 0.8"/>
      </g>
     </g>
     <g id="text_2">
      <!-- 2021 -->
      <g transform="translate(64.317421 155.234359) scale(0.07 -0.07)">
       <defs>
        <path id="Verdana-31" d="M 3388 0 
L 869 0 
L 869 475 
L 1838 475 
L 1838 3594 
L 869 3594 
L 869 4019 
Q 1066 4019 1291 4051 
Q 1516 4084 1631 4147 
Q 1775 4225 1858 4345 
Q 1941 4466 1953 4669 
L 2438 4669 
L 2438 475 
L 3388 475 
L 3388 0 
z
" transform="scale(0.015625)"/>
       </defs>
       <use xlink:href="#Verdana-32"/>
       <use xlink:href="#Verdana-30" transform="translate(63.574219 0)"/>
       <use xlink:href="#Verdana-32" transform="translate(127.148438 0)"/>
       <use xlink:href="#Verdana-31" transform="translate(190.722656 0)"/>
      </g>
     </g>
    </g>
    <g id="xtick_3">
     <g id="line2d_5">
      <path d="M 100.586625 142.915453 
L 100.586625 9.859453 
" clip-path="url(#p01dddcbadf)" style="fill: none; stroke-dasharray: 2,1; stroke-dashoffset: 0; stroke: #cccccc; stroke-opacity: 0.9; stroke-width: 0.5"/>
     </g>
     <g id="line2d_6">
      <g>
       <use xlink:href="#m1ba9a4b6b8" x="100.586625" y="142.915453" style="stroke: #000000; stroke-width: 0.8"/>
      </g>
     </g>
     <g id="text_3">
      <!-- 2022 -->
      <g transform="translate(91.685687 155.234359) scale(0.07 -0.07)">
       <use xlink:href="#Verdana-32"/>
       <use xlink:href="#Verdana-30" transform="translate(63.574219 0)"/>
       <use xlink:href="#Verdana-32" transform="translate(127.148438 0)"/>
       <use xlink:href="#Verdana-32" transform="translate(190.722656 0)"/>
      </g>
     </g>
    </g>
    <g id="xtick_4">
     <g id="line2d_7">
      <path d="M 127.954891 142.915453 
L 127.954891 9.859453 
" clip-path="url(#p01dddcbadf)" style="fill: none; stroke-dasharray: 2,1; stroke-dashoffset: 0; stroke: #cccccc; stroke-opacity: 0.9; stroke-width: 0.5"/>
     </g>
     <g id="line2d_8">
      <g>
       <use xlink:href="#m1ba9a4b6b8" x="127.954891" y="142.915453" style="stroke: #000000; stroke-width: 0.8"/>
      </g>
     </g>
     <g id="text_4">
      <!-- 2023 -->
      <g transform="translate(119.053953 155.234359) scale(0.07 -0.07)">
       <defs>
        <path id="Verdana-33" d="M 3244 2241 
Q 3394 2106 3491 1903 
Q 3588 1700 3588 1378 
Q 3588 1059 3472 793 
Q 3356 528 3147 331 
Q 2913 113 2595 8 
Q 2278 -97 1900 -97 
Q 1513 -97 1138 -4 
Q 763 88 522 197 
L 522 850 
L 569 850 
Q 834 675 1193 559 
Q 1553 444 1888 444 
Q 2084 444 2306 509 
Q 2528 575 2666 703 
Q 2809 841 2879 1006 
Q 2950 1172 2950 1425 
Q 2950 1675 2870 1839 
Q 2791 2003 2650 2097 
Q 2509 2194 2309 2230 
Q 2109 2266 1878 2266 
L 1597 2266 
L 1597 2784 
L 1816 2784 
Q 2291 2784 2573 2982 
Q 2856 3181 2856 3563 
Q 2856 3731 2784 3857 
Q 2713 3984 2584 4066 
Q 2450 4147 2297 4178 
Q 2144 4209 1950 4209 
Q 1653 4209 1318 4103 
Q 984 3997 688 3803 
L 656 3803 
L 656 4456 
Q 878 4566 1248 4658 
Q 1619 4750 1966 4750 
Q 2306 4750 2565 4687 
Q 2825 4625 3034 4488 
Q 3259 4338 3375 4125 
Q 3491 3913 3491 3628 
Q 3491 3241 3217 2952 
Q 2944 2663 2572 2588 
L 2572 2544 
Q 2722 2519 2915 2439 
Q 3109 2359 3244 2241 
z
" transform="scale(0.015625)"/>
       </defs>
       <use xlink:href="#Verdana-32"/>
       <use xlink:href="#Verdana-30" transform="translate(63.574219 0)"/>
       <use xlink:href="#Verdana-32" transform="translate(127.148438 0)"/>
       <use xlink:href="#Verdana-33" transform="translate(190.722656 0)"/>
      </g>
     </g>
    </g>
    <g id="xtick_5">
     <g id="line2d_9">
      <path d="M 155.323157 142.915453 
L 155.323157 9.859453 
" clip-path="url(#p01dddcbadf)" style="fill: none; stroke-dasharray: 2,1; stroke-dashoffset: 0; stroke: #cccccc; stroke-opacity: 0.9; stroke-width: 0.5"/>
     </g>
     <g id="line2d_10">
      <g>
       <use xlink:href="#m1ba9a4b6b8" x="155.323157" y="142.915453" style="stroke: #000000; stroke-width: 0.8"/>
      </g>
     </g>
     <g id="text_5">
      <!-- 2024 -->
      <g transform="translate(146.422219 155.234359) scale(0.07 -0.07)">
       <defs>
        <path id="Verdana-34" d="M 3759 1309 
L 3069 1309 
L 3069 0 
L 2469 0 
L 2469 1309 
L 241 1309 
L 241 2028 
L 2494 4653 
L 3069 4653 
L 3069 1809 
L 3759 1809 
L 3759 1309 
z
M 2469 1809 
L 2469 3909 
L 666 1809 
L 2469 1809 
z
" transform="scale(0.015625)"/>
       </defs>
       <use xlink:href="#Verdana-32"/>
       <use xlink:href="#Verdana-30" transform="translate(63.574219 0)"/>
       <use xlink:href="#Verdana-32" transform="translate(127.148438 0)"/>
       <use xlink:href="#Verdana-34" transform="translate(190.722656 0)"/>
      </g>
     </g>
    </g>
    <g id="xtick_6">
     <g id="line2d_11">
      <path d="M 182.766405 142.915453 
L 182.766405 9.859453 
" clip-path="url(#p01dddcbadf)" style="fill: none; stroke-dasharray: 2,1; stroke-dashoffset: 0; stroke: #cccccc; stroke-opacity: 0.9; stroke-width: 0.5"/>
     </g>
     <g id="line2d_12">
      <g>
       <use xlink:href="#m1ba9a4b6b8" x="182.766405" y="142.915453" style="stroke: #000000; stroke-width: 0.8"/>
      </g>
     </g>
     <g id="text_6">
      <!-- 2025 -->
      <g transform="translate(173.865467 155.234359) scale(0.07 -0.07)">
       <defs>
        <path id="Verdana-35" d="M 3616 1478 
Q 3616 1153 3497 856 
Q 3378 559 3172 356 
Q 2947 138 2636 20 
Q 2325 -97 1916 -97 
Q 1534 -97 1181 -17 
Q 828 63 584 175 
L 584 834 
L 628 834 
Q 884 672 1228 558 
Q 1572 444 1903 444 
Q 2125 444 2333 506 
Q 2541 569 2703 725 
Q 2841 859 2911 1046 
Q 2981 1234 2981 1481 
Q 2981 1722 2898 1887 
Q 2816 2053 2669 2153 
Q 2506 2272 2273 2320 
Q 2041 2369 1753 2369 
Q 1478 2369 1223 2331 
Q 969 2294 784 2256 
L 784 4653 
L 3584 4653 
L 3584 4106 
L 1388 4106 
L 1388 2869 
Q 1522 2881 1662 2887 
Q 1803 2894 1906 2894 
Q 2284 2894 2568 2830 
Q 2853 2766 3091 2603 
Q 3341 2431 3478 2159 
Q 3616 1888 3616 1478 
z
" transform="scale(0.015625)"/>
       </defs>
       <use xlink:href="#Verdana-32"/>
       <use xlink:href="#Verdana-30" transform="translate(63.574219 0)"/>
       <use xlink:href="#Verdana-32" transform="translate(127.148438 0)"/>
       <use xlink:href="#Verdana-35" transform="translate(190.722656 0)"/>
      </g>
     </g>
    </g>
    <g id="xtick_7">
     <g id="line2d_13">
      <path d="M 210.134671 142.915453 
L 210.134671 9.859453 
" clip-path="url(#p01dddcbadf)" style="fill: none; stroke-dasharray: 2,1; stroke-dashoffset: 0; stroke: #cccccc; stroke-opacity: 0.9; stroke-width: 0.5"/>
     </g>
     <g id="line2d_14">
      <g>
       <use xlink:href="#m1ba9a4b6b8" x="210.134671" y="142.915453" style="stroke: #000000; stroke-width: 0.8"/>
      </g>
     </g>
     <g id="text_7">
      <!-- 2026 -->
      <g transform="translate(201.233733 155.234359) scale(0.07 -0.07)">
       <defs>
        <path id="Verdana-36" d="M 3722 1509 
Q 3722 800 3255 351 
Q 2788 -97 2109 -97 
Q 1766 -97 1484 9 
Q 1203 116 988 325 
Q 719 584 573 1012 
Q 428 1441 428 2044 
Q 428 2663 561 3141 
Q 694 3619 984 3991 
Q 1259 4344 1693 4542 
Q 2128 4741 2706 4741 
Q 2891 4741 3016 4725 
Q 3141 4709 3269 4669 
L 3269 4072 
L 3238 4072 
Q 3150 4119 2973 4161 
Q 2797 4203 2613 4203 
Q 1941 4203 1541 3783 
Q 1141 3363 1075 2647 
Q 1338 2806 1592 2889 
Q 1847 2972 2181 2972 
Q 2478 2972 2704 2917 
Q 2931 2863 3169 2697 
Q 3444 2506 3583 2215 
Q 3722 1925 3722 1509 
z
M 3088 1484 
Q 3088 1775 3002 1965 
Q 2916 2156 2719 2297 
Q 2575 2397 2400 2428 
Q 2225 2459 2034 2459 
Q 1769 2459 1541 2396 
Q 1313 2334 1072 2203 
Q 1066 2134 1062 2070 
Q 1059 2006 1059 1909 
Q 1059 1416 1161 1130 
Q 1263 844 1441 678 
Q 1584 541 1751 477 
Q 1919 413 2116 413 
Q 2569 413 2828 689 
Q 3088 966 3088 1484 
z
" transform="scale(0.015625)"/>
       </defs>
       <use xlink:href="#Verdana-32"/>
       <use xlink:href="#Verdana-30" transform="translate(63.574219 0)"/>
       <use xlink:href="#Verdana-32" transform="translate(127.148438 0)"/>
       <use xlink:href="#Verdana-36" transform="translate(190.722656 0)"/>
      </g>
     </g>
    </g>
   </g>
   <g id="matplotlib.axis_2">
    <g id="ytick_1">
     <g id="line2d_15">
      <path d="M 37.335938 142.915453 
L 222.997756 142.915453 
" clip-path="url(#p01dddcbadf)" style="fill: none; stroke-dasharray: 2,1; stroke-dashoffset: 0; stroke: #cccccc; stroke-opacity: 0.9; stroke-width: 0.5"/>
     </g>
     <g id="line2d_16">
      <defs>
       <path id="m4ea158f99e" d="M 0 0 
L -3.5 0 
" style="stroke: #000000; stroke-width: 0.8"/>
      </defs>
      <g>
       <use xlink:href="#m4ea158f99e" x="37.335938" y="142.915453" style="stroke: #000000; stroke-width: 0.8"/>
      </g>
     </g>
     <g id="text_8">
      <!-- 0.0 -->
      <g transform="translate(18.88875 145.574906) scale(0.07 -0.07)">
       <defs>
        <path id="Verdana-2e" d="M 1538 0 
L 791 0 
L 791 891 
L 1538 891 
L 1538 0 
z
" transform="scale(0.015625)"/>
       </defs>
       <use xlink:href="#Verdana-30"/>
       <use xlink:href="#Verdana-2e" transform="translate(63.574219 0)"/>
       <use xlink:href="#Verdana-30" transform="translate(99.951172 0)"/>
      </g>
     </g>
    </g>
    <g id="ytick_2">
     <g id="line2d_17">
      <path d="M 37.335938 116.304253 
L 222.997756 116.304253 
" clip-path="url(#p01dddcbadf)" style="fill: none; stroke-dasharray: 2,1; stroke-dashoffset: 0; stroke: #cccccc; stroke-opacity: 0.9; stroke-width: 0.5"/>
     </g>
     <g id="line2d_18">
      <g>
       <use xlink:href="#m4ea158f99e" x="37.335938" y="116.304253" style="stroke: #000000; stroke-width: 0.8"/>
      </g>
     </g>
     <g id="text_9">
      <!-- 0.2 -->
      <g transform="translate(18.88875 118.963706) scale(0.07 -0.07)">
       <use xlink:href="#Verdana-30"/>
       <use xlink:href="#Verdana-2e" transform="translate(63.574219 0)"/>
       <use xlink:href="#Verdana-32" transform="translate(99.951172 0)"/>
      </g>
     </g>
    </g>
    <g id="ytick_3">
     <g id="line2d_19">
      <path d="M 37.335938 89.693053 
L 222.997756 89.693053 
" clip-path="url(#p01dddcbadf)" style="fill: none; stroke-dasharray: 2,1; stroke-dashoffset: 0; stroke: #cccccc; stroke-opacity: 0.9; stroke-width: 0.5"/>
     </g>
     <g id="line2d_20">
      <g>
       <use xlink:href="#m4ea158f99e" x="37.335938" y="89.693053" style="stroke: #000000; stroke-width: 0.8"/>
      </g>
     </g>
     <g id="text_10">
      <!-- 0.4 -->
      <g transform="translate(18.88875 92.352506) scale(0.07 -0.07)">
       <use xlink:href="#Verdana-30"/>
       <use xlink:href="#Verdana-2e" transform="translate(63.574219 0)"/>
       <use xlink:href="#Verdana-34" transform="translate(99.951172 0)"/>
      </g>
     </g>
    </g>
    <g id="ytick_4">
     <g id="line2d_21">
      <path d="M 37.335938 63.081853 
L 222.997756 63.081853 
" clip-path="url(#p01dddcbadf)" style="fill: none; stroke-dasharray: 2,1; stroke-dashoffset: 0; stroke: #cccccc; stroke-opacity: 0.9; stroke-width: 0.5"/>
     </g>
     <g id="line2d_22">
      <g>
       <use xlink:href="#m4ea158f99e" x="37.335938" y="63.081853" style="stroke: #000000; stroke-width: 0.8"/>
      </g>
     </g>
     <g id="text_11">
      <!-- 0.6 -->
      <g transform="translate(18.88875 65.741306) scale(0.07 -0.07)">
       <use xlink:href="#Verdana-30"/>
       <use xlink:href="#Verdana-2e" transform="translate(63.574219 0)"/>
       <use xlink:href="#Verdana-36" transform="translate(99.951172 0)"/>
      </g>
     </g>
    </g>
    <g id="ytick_5">
     <g id="line2d_23">
      <path d="M 37.335938 36.470653 
L 222.997756 36.470653 
" clip-path="url(#p01dddcbadf)" style="fill: none; stroke-dasharray: 2,1; stroke-dashoffset: 0; stroke: #cccccc; stroke-opacity: 0.9; stroke-width: 0.5"/>
     </g>
     <g id="line2d_24">
      <g>
       <use xlink:href="#m4ea158f99e" x="37.335938" y="36.470653" style="stroke: #000000; stroke-width: 0.8"/>
      </g>
     </g>
     <g id="text_12">
      <!-- 0.8 -->
      <g transform="translate(18.88875 39.130106) scale(0.07 -0.07)">
       <defs>
        <path id="Verdana-38" d="M 3688 1297 
Q 3688 694 3217 294 
Q 2747 -106 2034 -106 
Q 1278 -106 829 284 
Q 381 675 381 1284 
Q 381 1672 606 1986 
Q 831 2300 1241 2484 
L 1241 2503 
Q 866 2703 686 2940 
Q 506 3178 506 3534 
Q 506 4059 937 4409 
Q 1369 4759 2034 4759 
Q 2731 4759 3147 4425 
Q 3563 4091 3563 3575 
Q 3563 3259 3366 2954 
Q 3169 2650 2788 2478 
L 2788 2459 
Q 3225 2272 3456 1997 
Q 3688 1722 3688 1297 
z
M 2947 3569 
Q 2947 3903 2689 4101 
Q 2431 4300 2031 4300 
Q 1638 4300 1386 4112 
Q 1134 3925 1134 3606 
Q 1134 3381 1261 3217 
Q 1388 3053 1644 2925 
Q 1759 2869 1976 2778 
Q 2194 2688 2400 2628 
Q 2709 2834 2828 3056 
Q 2947 3278 2947 3569 
z
M 3044 1238 
Q 3044 1525 2917 1698 
Q 2791 1872 2422 2047 
Q 2275 2116 2100 2175 
Q 1925 2234 1634 2341 
Q 1353 2188 1183 1925 
Q 1013 1663 1013 1331 
Q 1013 909 1303 634 
Q 1594 359 2041 359 
Q 2497 359 2770 593 
Q 3044 828 3044 1238 
z
" transform="scale(0.015625)"/>
       </defs>
       <use xlink:href="#Verdana-30"/>
       <use xlink:href="#Verdana-2e" transform="translate(63.574219 0)"/>
       <use xlink:href="#Verdana-38" transform="translate(99.951172 0)"/>
      </g>
     </g>
    </g>
    <g id="ytick_6">
     <g id="line2d_25">
      <path d="M 37.335938 9.859453 
L 222.997756 9.859453 
" clip-path="url(#p01dddcbadf)" style="fill: none; stroke-dasharray: 2,1; stroke-dashoffset: 0; stroke: #cccccc; stroke-opacity: 0.9; stroke-width: 0.5"/>
     </g>
     <g id="line2d_26">
      <g>
       <use xlink:href="#m4ea158f99e" x="37.335938" y="9.859453" style="stroke: #000000; stroke-width: 0.8"/>
      </g>
     </g>
     <g id="text_13">
      <!-- 1.0 -->
      <g transform="translate(18.88875 12.518906) scale(0.07 -0.07)">
       <use xlink:href="#Verdana-31"/>
       <use xlink:href="#Verdana-2e" transform="translate(63.574219 0)"/>
       <use xlink:href="#Verdana-30" transform="translate(99.951172 0)"/>
      </g>
     </g>
    </g>
    <g id="text_14">
     <!-- Fraction Accepted -->
     <g transform="translate(13.27875 116.698078) rotate(-90) scale(0.08 -0.08)">
      <defs>
       <path id="Verdana-Bold-46" d="M 3928 3753 
L 1788 3753 
L 1788 2888 
L 3772 2888 
L 3772 1988 
L 1788 1988 
L 1788 0 
L 594 0 
L 594 4653 
L 3928 4653 
L 3928 3753 
z
" transform="scale(0.015625)"/>
       <path id="Verdana-Bold-72" d="M 3075 2438 
L 2975 2438 
Q 2903 2463 2743 2475 
Q 2584 2488 2478 2488 
Q 2238 2488 2053 2456 
Q 1869 2425 1656 2350 
L 1656 0 
L 531 0 
L 531 3509 
L 1656 3509 
L 1656 2994 
Q 2028 3313 2303 3417 
Q 2578 3522 2809 3522 
Q 2869 3522 2944 3519 
Q 3019 3516 3075 3509 
L 3075 2438 
z
" transform="scale(0.015625)"/>
       <path id="Verdana-Bold-61" d="M 2656 916 
L 2656 1647 
Q 2428 1628 2162 1595 
Q 1897 1563 1759 1519 
Q 1591 1466 1502 1364 
Q 1413 1263 1413 1097 
Q 1413 988 1431 919 
Q 1450 850 1525 788 
Q 1597 725 1697 695 
Q 1797 666 2009 666 
Q 2178 666 2351 734 
Q 2525 803 2656 916 
z
M 2656 372 
Q 2566 303 2431 206 
Q 2297 109 2178 53 
Q 2013 -22 1834 -58 
Q 1656 -94 1444 -94 
Q 944 -94 606 215 
Q 269 525 269 1006 
Q 269 1391 441 1634 
Q 613 1878 928 2019 
Q 1241 2159 1703 2218 
Q 2166 2278 2663 2306 
L 2663 2325 
Q 2663 2616 2425 2727 
Q 2188 2838 1725 2838 
Q 1447 2838 1131 2739 
Q 816 2641 678 2588 
L 575 2588 
L 575 3434 
Q 753 3481 1154 3545 
Q 1556 3609 1959 3609 
Q 2919 3609 3345 3314 
Q 3772 3019 3772 2388 
L 3772 0 
L 2656 0 
L 2656 372 
z
" transform="scale(0.015625)"/>
       <path id="Verdana-Bold-63" d="M 2359 -94 
Q 1900 -94 1520 15 
Q 1141 125 859 353 
Q 581 581 428 928 
Q 275 1275 275 1741 
Q 275 2231 439 2587 
Q 603 2944 897 3178 
Q 1181 3400 1553 3503 
Q 1925 3606 2325 3606 
Q 2684 3606 2987 3528 
Q 3291 3450 3553 3325 
L 3553 2366 
L 3394 2366 
Q 3328 2422 3236 2497 
Q 3144 2572 3009 2644 
Q 2881 2713 2728 2758 
Q 2575 2803 2372 2803 
Q 1922 2803 1680 2517 
Q 1438 2231 1438 1741 
Q 1438 1234 1686 971 
Q 1934 709 2391 709 
Q 2603 709 2773 757 
Q 2944 806 3056 872 
Q 3163 934 3244 1003 
Q 3325 1072 3394 1138 
L 3553 1138 
L 3553 178 
Q 3288 53 2998 -20 
Q 2709 -94 2359 -94 
z
" transform="scale(0.015625)"/>
       <path id="Verdana-Bold-74" d="M 2775 31 
Q 2594 -16 2391 -42 
Q 2188 -69 1894 -69 
Q 1238 -69 917 197 
Q 597 463 597 1106 
L 597 2747 
L 134 2747 
L 134 3509 
L 597 3509 
L 597 4513 
L 1722 4513 
L 1722 3509 
L 2775 3509 
L 2775 2747 
L 1722 2747 
L 1722 1503 
Q 1722 1319 1725 1181 
Q 1728 1044 1775 934 
Q 1819 825 1930 761 
Q 2041 697 2253 697 
Q 2341 697 2483 734 
Q 2625 772 2681 803 
L 2775 803 
L 2775 31 
z
" transform="scale(0.015625)"/>
       <path id="Verdana-Bold-69" d="M 1656 0 
L 531 0 
L 531 3509 
L 1656 3509 
L 1656 0 
z
M 1688 4009 
L 500 4009 
L 500 4863 
L 1688 4863 
L 1688 4009 
z
" transform="scale(0.015625)"/>
       <path id="Verdana-Bold-6f" d="M 4119 1753 
Q 4119 888 3614 389 
Q 3109 -109 2197 -109 
Q 1284 -109 779 389 
Q 275 888 275 1753 
Q 275 2625 783 3122 
Q 1291 3619 2197 3619 
Q 3116 3619 3617 3119 
Q 4119 2619 4119 1753 
z
M 2734 900 
Q 2844 1034 2898 1223 
Q 2953 1413 2953 1747 
Q 2953 2056 2897 2265 
Q 2841 2475 2741 2600 
Q 2641 2728 2500 2781 
Q 2359 2834 2197 2834 
Q 2034 2834 1907 2790 
Q 1781 2747 1666 2616 
Q 1563 2494 1502 2281 
Q 1441 2069 1441 1747 
Q 1441 1459 1494 1248 
Q 1547 1038 1650 909 
Q 1750 788 1889 731 
Q 2028 675 2206 675 
Q 2359 675 2498 726 
Q 2638 778 2734 900 
z
" transform="scale(0.015625)"/>
       <path id="Verdana-Bold-6e" d="M 4056 0 
L 2925 0 
L 2925 1741 
Q 2925 1953 2903 2164 
Q 2881 2375 2828 2475 
Q 2766 2591 2645 2644 
Q 2525 2697 2309 2697 
Q 2156 2697 1998 2647 
Q 1841 2597 1656 2488 
L 1656 0 
L 531 0 
L 531 3509 
L 1656 3509 
L 1656 3122 
Q 1956 3356 2232 3481 
Q 2509 3606 2847 3606 
Q 3416 3606 3736 3275 
Q 4056 2944 4056 2284 
L 4056 0 
z
" transform="scale(0.015625)"/>
       <path id="Verdana-Bold-20" transform="scale(0.015625)"/>
       <path id="Verdana-Bold-41" d="M 4894 0 
L 3653 0 
L 3331 941 
L 1606 941 
L 1284 0 
L 75 0 
L 1794 4653 
L 3175 4653 
L 4894 0 
z
M 3041 1794 
L 2469 3463 
L 1897 1794 
L 3041 1794 
z
" transform="scale(0.015625)"/>
       <path id="Verdana-Bold-65" d="M 3988 1547 
L 1413 1547 
Q 1438 1134 1727 915 
Q 2016 697 2578 697 
Q 2934 697 3268 825 
Q 3603 953 3797 1100 
L 3922 1100 
L 3922 197 
Q 3541 44 3203 -25 
Q 2866 -94 2456 -94 
Q 1400 -94 837 381 
Q 275 856 275 1734 
Q 275 2603 808 3111 
Q 1341 3619 2269 3619 
Q 3125 3619 3556 3186 
Q 3988 2753 3988 1941 
L 3988 1547 
z
M 2869 2206 
Q 2859 2559 2693 2737 
Q 2528 2916 2178 2916 
Q 1853 2916 1643 2747 
Q 1434 2578 1409 2206 
L 2869 2206 
z
" transform="scale(0.015625)"/>
       <path id="Verdana-Bold-70" d="M 4194 1803 
Q 4194 1369 4061 1012 
Q 3928 656 3713 425 
Q 3488 181 3203 56 
Q 2919 -69 2594 -69 
Q 2294 -69 2084 -5 
Q 1875 59 1656 175 
L 1656 -1288 
L 531 -1288 
L 531 3509 
L 1656 3509 
L 1656 3144 
Q 1916 3350 2186 3478 
Q 2456 3606 2809 3606 
Q 3466 3606 3830 3125 
Q 4194 2644 4194 1803 
z
M 3034 1781 
Q 3034 2294 2859 2525 
Q 2684 2756 2306 2756 
Q 2147 2756 1978 2707 
Q 1809 2659 1656 2569 
L 1656 803 
Q 1769 759 1897 746 
Q 2025 734 2150 734 
Q 2597 734 2815 995 
Q 3034 1256 3034 1781 
z
" transform="scale(0.015625)"/>
       <path id="Verdana-Bold-64" d="M 3944 0 
L 2819 0 
L 2819 366 
Q 2528 128 2275 15 
Q 2022 -97 1691 -97 
Q 1050 -97 665 397 
Q 281 891 281 1728 
Q 281 2175 411 2520 
Q 541 2866 766 3113 
Q 978 3347 1281 3476 
Q 1584 3606 1888 3606 
Q 2203 3606 2404 3539 
Q 2606 3472 2819 3369 
L 2819 4863 
L 3944 4863 
L 3944 0 
z
M 2819 969 
L 2819 2691 
Q 2700 2741 2569 2762 
Q 2438 2784 2328 2784 
Q 1884 2784 1662 2507 
Q 1441 2231 1441 1741 
Q 1441 1225 1619 992 
Q 1797 759 2191 759 
Q 2344 759 2516 817 
Q 2688 875 2819 969 
z
" transform="scale(0.015625)"/>
      </defs>
      <use xlink:href="#Verdana-Bold-46"/>
      <use xlink:href="#Verdana-Bold-72" transform="translate(65.039062 0)"/>
      <use xlink:href="#Verdana-Bold-61" transform="translate(114.746094 0)"/>
      <use xlink:href="#Verdana-Bold-63" transform="translate(181.542969 0)"/>
      <use xlink:href="#Verdana-Bold-74" transform="translate(240.380859 0)"/>
      <use xlink:href="#Verdana-Bold-69" transform="translate(285.9375 0)"/>
      <use xlink:href="#Verdana-Bold-6f" transform="translate(320.117188 0)"/>
      <use xlink:href="#Verdana-Bold-6e" transform="translate(388.769531 0)"/>
      <use xlink:href="#Verdana-Bold-20" transform="translate(460.009766 0)"/>
      <use xlink:href="#Verdana-Bold-41" transform="translate(494.189453 0)"/>
      <use xlink:href="#Verdana-Bold-63" transform="translate(571.826172 0)"/>
      <use xlink:href="#Verdana-Bold-63" transform="translate(630.664062 0)"/>
      <use xlink:href="#Verdana-Bold-65" transform="translate(689.501953 0)"/>
      <use xlink:href="#Verdana-Bold-70" transform="translate(755.908203 0)"/>
      <use xlink:href="#Verdana-Bold-74" transform="translate(825.830078 0)"/>
      <use xlink:href="#Verdana-Bold-65" transform="translate(871.386719 0)"/>
      <use xlink:href="#Verdana-Bold-64" transform="translate(937.792969 0)"/>
     </g>
    </g>
   </g>
   <g id="FillBetweenPolyCollection_1">
    <defs>
     <path id="m112b4fd397" d="M 45.775111 -20.927656 
L 45.775111 -81.654007 
L 48.099539 -81.063071 
L 50.274004 -80.658641 
L 52.598432 -81.695107 
L 54.847879 -81.888051 
L 57.172307 -80.827468 
L 59.421753 -81.538851 
L 61.746181 -81.81424 
L 64.070609 -81.269798 
L 66.320056 -82.189237 
L 68.644484 -82.086329 
L 70.893931 -81.122968 
L 73.218359 -81.12448 
L 75.542787 -80.863574 
L 77.64227 -79.74012 
L 79.966698 -79.197727 
L 82.216145 -79.126235 
L 84.540573 -78.396735 
L 86.790019 -78.640295 
L 89.114447 -78.814758 
L 91.438876 -77.86598 
L 93.688322 -78.240472 
L 96.01275 -77.245057 
L 98.262197 -76.641017 
L 100.586625 -77.285324 
L 102.911053 -75.635457 
L 105.010536 -74.559476 
L 107.334964 -74.656615 
L 109.584411 -73.657095 
L 111.908839 -73.984711 
L 114.158285 -74.835175 
L 116.482714 -75.082559 
L 118.807142 -75.199436 
L 121.056588 -74.613271 
L 123.381016 -73.233785 
L 125.630463 -73.061901 
L 127.954891 -73.069371 
L 130.279319 -71.890515 
L 132.378802 -71.200769 
L 134.70323 -69.748396 
L 136.952677 -69.554259 
L 139.277105 -68.212192 
L 141.526552 -68.633487 
L 143.85098 -68.864512 
L 146.175408 -68.905778 
L 148.424854 -69.185454 
L 150.749282 -68.251602 
L 152.998729 -67.558113 
L 155.323157 -68.592505 
L 157.647585 -67.289397 
L 159.82205 -67.511957 
L 162.146478 -66.756211 
L 164.395925 -65.892619 
L 166.720353 -66.271598 
L 168.969799 -67.92388 
L 171.294227 -68.146467 
L 173.618655 -67.869972 
L 175.868102 -68.337559 
L 178.19253 -67.668954 
L 180.441976 -66.37297 
L 182.766405 -67.538841 
L 185.090833 -67.884072 
L 187.190316 -68.181929 
L 189.514744 -64.705009 
L 191.764191 -61.078332 
L 194.088619 -61.334899 
L 196.338065 -64.44423 
L 198.662493 -65.196074 
L 200.986921 -59.733827 
L 203.236368 -61.96993 
L 205.560796 -61.218384 
L 207.810243 -62.159081 
L 210.134671 -63.396154 
L 212.459099 -63.459596 
L 214.558582 -59.803831 
L 214.558582 -20.927656 
L 214.558582 -20.927656 
L 212.459099 -20.927656 
L 210.134671 -20.927656 
L 207.810243 -20.927656 
L 205.560796 -20.927656 
L 203.236368 -20.927656 
L 200.986921 -20.927656 
L 198.662493 -20.927656 
L 196.338065 -20.927656 
L 194.088619 -20.927656 
L 191.764191 -20.927656 
L 189.514744 -20.927656 
L 187.190316 -20.927656 
L 185.090833 -20.927656 
L 182.766405 -20.927656 
L 180.441976 -20.927656 
L 178.19253 -20.927656 
L 175.868102 -20.927656 
L 173.618655 -20.927656 
L 171.294227 -20.927656 
L 168.969799 -20.927656 
L 166.720353 -20.927656 
L 164.395925 -20.927656 
L 162.146478 -20.927656 
L 159.82205 -20.927656 
L 157.647585 -20.927656 
L 155.323157 -20.927656 
L 152.998729 -20.927656 
L 150.749282 -20.927656 
L 148.424854 -20.927656 
L 146.175408 -20.927656 
L 143.85098 -20.927656 
L 141.526552 -20.927656 
L 139.277105 -20.927656 
L 136.952677 -20.927656 
L 134.70323 -20.927656 
L 132.378802 -20.927656 
L 130.279319 -20.927656 
L 127.954891 -20.927656 
L 125.630463 -20.927656 
L 123.381016 -20.927656 
L 121.056588 -20.927656 
L 118.807142 -20.927656 
L 116.482714 -20.927656 
L 114.158285 -20.927656 
L 111.908839 -20.927656 
L 109.584411 -20.927656 
L 107.334964 -20.927656 
L 105.010536 -20.927656 
L 102.911053 -20.927656 
L 100.586625 -20.927656 
L 98.262197 -20.927656 
L 96.01275 -20.927656 
L 93.688322 -20.927656 
L 91.438876 -20.927656 
L 89.114447 -20.927656 
L 86.790019 -20.927656 
L 84.540573 -20.927656 
L 82.216145 -20.927656 
L 79.966698 -20.927656 
L 77.64227 -20.927656 
L 75.542787 -20.927656 
L 73.218359 -20.927656 
L 70.893931 -20.927656 
L 68.644484 -20.927656 
L 66.320056 -20.927656 
L 64.070609 -20.927656 
L 61.746181 -20.927656 
L 59.421753 -20.927656 
L 57.172307 -20.927656 
L 54.847879 -20.927656 
L 52.598432 -20.927656 
L 50.274004 -20.927656 
L 48.099539 -20.927656 
L 45.775111 -20.927656 
z
" style="stroke: #228833; stroke-opacity: 0.25"/>
    </defs>
    <g clip-path="url(#p01dddcbadf)">
     <use xlink:href="#m112b4fd397" x="0" y="163.843109" style="fill: #228833; fill-opacity: 0.25; stroke: #228833; stroke-opacity: 0.25"/>
    </g>
   </g>
   <g id="line2d_27">
    <path d="M 45.775111 82.189103 
L 48.099539 82.780039 
L 50.274004 83.184468 
L 52.598432 82.148003 
L 54.847879 81.955059 
L 57.172307 83.015641 
L 59.421753 82.304258 
L 61.746181 82.02887 
L 64.070609 82.573311 
L 66.320056 81.653872 
L 68.644484 81.756781 
L 70.893931 82.720141 
L 73.218359 82.71863 
L 75.542787 82.979535 
L 77.64227 84.102989 
L 79.966698 84.645382 
L 82.216145 84.716875 
L 84.540573 85.446374 
L 86.790019 85.202814 
L 89.114447 85.028352 
L 91.438876 85.97713 
L 93.688322 85.602637 
L 96.01275 86.598052 
L 98.262197 87.202093 
L 100.586625 86.557786 
L 102.911053 88.207652 
L 105.010536 89.283633 
L 107.334964 89.186495 
L 109.584411 90.186014 
L 111.908839 89.858398 
L 114.158285 89.007934 
L 116.482714 88.76055 
L 118.807142 88.643673 
L 121.056588 89.229838 
L 123.381016 90.609324 
L 125.630463 90.781209 
L 127.954891 90.773739 
L 130.279319 91.952594 
L 132.378802 92.64234 
L 134.70323 94.094713 
L 136.952677 94.28885 
L 139.277105 95.630917 
L 141.526552 95.209622 
L 143.85098 94.978597 
L 146.175408 94.937332 
L 148.424854 94.657655 
L 150.749282 95.591507 
L 152.998729 96.284997 
L 155.323157 95.250605 
L 157.647585 96.553712 
L 159.82205 96.331153 
L 162.146478 97.086898 
L 164.395925 97.95049 
L 166.720353 97.571511 
L 168.969799 95.919229 
L 171.294227 95.696642 
L 173.618655 95.973137 
L 175.868102 95.505551 
L 178.19253 96.174156 
L 180.441976 97.47014 
L 182.766405 96.304269 
L 185.090833 95.959038 
L 187.190316 95.661181 
L 189.514744 99.1381 
L 191.764191 102.764777 
L 194.088619 102.508211 
L 196.338065 99.39888 
L 198.662493 98.647036 
L 200.986921 104.109282 
L 203.236368 101.873179 
L 205.560796 102.624725 
L 207.810243 101.684028 
L 210.134671 100.446956 
L 212.459099 100.383514 
L 214.558582 104.039278 
" clip-path="url(#p01dddcbadf)" style="fill: none; stroke: #228833; stroke-width: 1.7; stroke-linecap: round"/>
   </g>
   <g id="line2d_28">
    <path d="M 125.555481 142.915453 
L 125.555481 9.859453 
" clip-path="url(#p01dddcbadf)" style="fill: none; stroke-dasharray: 2.96,1.28; stroke-dashoffset: 0; stroke: #444444; stroke-opacity: 0.9; stroke-width: 0.8"/>
   </g>
   <g id="patch_3">
    <path d="M 37.335938 142.915453 
L 37.335938 9.859453 
" style="fill: none; stroke: #222222; stroke-width: 0.7; stroke-linejoin: miter; stroke-linecap: square"/>
   </g>
   <g id="patch_4">
    <path d="M 222.997756 142.915453 
L 222.997756 9.859453 
" style="fill: none; stroke: #222222; stroke-width: 0.7; stroke-linejoin: miter; stroke-linecap: square"/>
   </g>
   <g id="patch_5">
    <path d="M 37.335938 142.915453 
L 222.997756 142.915453 
" style="fill: none; stroke: #222222; stroke-width: 0.7; stroke-linejoin: miter; stroke-linecap: square"/>
   </g>
   <g id="patch_6">
    <path d="M 37.335938 9.859453 
L 222.997756 9.859453 
" style="fill: none; stroke: #222222; stroke-width: 0.7; stroke-linejoin: miter; stroke-linecap: square"/>
   </g>
   <g id="text_15">
    <!-- GPT Release -->
    <g style="fill: #444444" transform="translate(133.874387 57.250039) rotate(-90) scale(0.07 -0.07)">
     <defs>
      <path id="Verdana-47" d="M 4506 344 
Q 4125 169 3673 39 
Q 3222 -91 2800 -91 
Q 2256 -91 1803 59 
Q 1350 209 1031 509 
Q 709 813 534 1267 
Q 359 1722 359 2331 
Q 359 3447 1011 4092 
Q 1663 4738 2800 4738 
Q 3197 4738 3611 4642 
Q 4025 4547 4503 4319 
L 4503 3584 
L 4447 3584 
Q 4350 3659 4165 3781 
Q 3981 3903 3803 3984 
Q 3588 4081 3314 4145 
Q 3041 4209 2694 4209 
Q 1913 4209 1458 3707 
Q 1003 3206 1003 2350 
Q 1003 1447 1478 945 
Q 1953 444 2772 444 
Q 3072 444 3370 503 
Q 3669 563 3894 656 
L 3894 1797 
L 2647 1797 
L 2647 2341 
L 4506 2341 
L 4506 344 
z
" transform="scale(0.015625)"/>
      <path id="Verdana-50" d="M 3669 3247 
Q 3669 2938 3561 2673 
Q 3453 2409 3259 2216 
Q 3019 1975 2691 1854 
Q 2363 1734 1863 1734 
L 1244 1734 
L 1244 0 
L 625 0 
L 625 4653 
L 1888 4653 
Q 2306 4653 2597 4583 
Q 2888 4513 3113 4363 
Q 3378 4184 3523 3918 
Q 3669 3653 3669 3247 
z
M 3025 3231 
Q 3025 3472 2940 3650 
Q 2856 3828 2684 3941 
Q 2534 4038 2342 4080 
Q 2150 4122 1856 4122 
L 1244 4122 
L 1244 2263 
L 1766 2263 
Q 2141 2263 2375 2330 
Q 2609 2397 2756 2544 
Q 2903 2694 2964 2859 
Q 3025 3025 3025 3231 
z
" transform="scale(0.015625)"/>
      <path id="Verdana-54" d="M 3944 4103 
L 2281 4103 
L 2281 0 
L 1663 0 
L 1663 4103 
L 0 4103 
L 0 4653 
L 3944 4653 
L 3944 4103 
z
" transform="scale(0.015625)"/>
      <path id="Verdana-20" transform="scale(0.015625)"/>
      <path id="Verdana-52" d="M 4475 0 
L 3672 0 
L 2116 1850 
L 1244 1850 
L 1244 0 
L 625 0 
L 625 4653 
L 1928 4653 
Q 2350 4653 2631 4598 
Q 2913 4544 3138 4403 
Q 3391 4244 3533 4001 
Q 3675 3759 3675 3388 
Q 3675 2884 3422 2545 
Q 3169 2206 2725 2034 
L 4475 0 
z
M 3028 3344 
Q 3028 3544 2958 3698 
Q 2888 3853 2725 3959 
Q 2591 4050 2406 4086 
Q 2222 4122 1972 4122 
L 1244 4122 
L 1244 2366 
L 1869 2366 
Q 2163 2366 2381 2417 
Q 2600 2469 2753 2609 
Q 2894 2741 2961 2911 
Q 3028 3081 3028 3344 
z
" transform="scale(0.015625)"/>
      <path id="Verdana-65" d="M 3500 1684 
L 928 1684 
Q 928 1363 1025 1123 
Q 1122 884 1291 731 
Q 1453 581 1676 506 
Q 1900 431 2169 431 
Q 2525 431 2886 573 
Q 3247 716 3400 853 
L 3431 853 
L 3431 213 
Q 3134 88 2825 3 
Q 2516 -81 2175 -81 
Q 1306 -81 818 389 
Q 331 859 331 1725 
Q 331 2581 798 3084 
Q 1266 3588 2028 3588 
Q 2734 3588 3117 3175 
Q 3500 2763 3500 2003 
L 3500 1684 
z
M 2928 2134 
Q 2925 2597 2695 2850 
Q 2466 3103 1997 3103 
Q 1525 3103 1245 2825 
Q 966 2547 928 2134 
L 2928 2134 
z
" transform="scale(0.015625)"/>
      <path id="Verdana-6c" d="M 1172 0 
L 584 0 
L 584 4863 
L 1172 4863 
L 1172 0 
z
" transform="scale(0.015625)"/>
      <path id="Verdana-61" d="M 3291 0 
L 2706 0 
L 2706 372 
Q 2628 319 2495 223 
Q 2363 128 2238 72 
Q 2091 0 1900 -48 
Q 1709 -97 1453 -97 
Q 981 -97 653 215 
Q 325 528 325 1013 
Q 325 1409 495 1654 
Q 666 1900 981 2041 
Q 1300 2181 1747 2231 
Q 2194 2281 2706 2306 
L 2706 2397 
Q 2706 2597 2636 2728 
Q 2566 2859 2434 2934 
Q 2309 3006 2134 3031 
Q 1959 3056 1769 3056 
Q 1538 3056 1253 2995 
Q 969 2934 666 2819 
L 634 2819 
L 634 3416 
Q 806 3463 1131 3519 
Q 1456 3575 1772 3575 
Q 2141 3575 2414 3514 
Q 2688 3453 2888 3306 
Q 3084 3163 3187 2934 
Q 3291 2706 3291 2369 
L 3291 0 
z
M 2706 859 
L 2706 1831 
Q 2438 1816 2073 1784 
Q 1709 1753 1497 1694 
Q 1244 1622 1087 1470 
Q 931 1319 931 1053 
Q 931 753 1112 601 
Q 1294 450 1666 450 
Q 1975 450 2231 570 
Q 2488 691 2706 859 
z
" transform="scale(0.015625)"/>
      <path id="Verdana-73" d="M 3072 1006 
Q 3072 528 2676 222 
Q 2281 -84 1597 -84 
Q 1209 -84 886 8 
Q 563 100 344 209 
L 344 869 
L 375 869 
Q 653 659 993 536 
Q 1334 413 1647 413 
Q 2034 413 2253 538 
Q 2472 663 2472 931 
Q 2472 1138 2353 1244 
Q 2234 1350 1897 1425 
Q 1772 1453 1570 1490 
Q 1369 1528 1203 1572 
Q 744 1694 551 1930 
Q 359 2166 359 2509 
Q 359 2725 448 2915 
Q 538 3106 719 3256 
Q 894 3403 1164 3489 
Q 1434 3575 1769 3575 
Q 2081 3575 2401 3498 
Q 2722 3422 2934 3313 
L 2934 2684 
L 2903 2684 
Q 2678 2850 2356 2964 
Q 2034 3078 1725 3078 
Q 1403 3078 1181 2954 
Q 959 2831 959 2588 
Q 959 2372 1094 2263 
Q 1225 2153 1519 2084 
Q 1681 2047 1882 2009 
Q 2084 1972 2219 1941 
Q 2628 1847 2850 1619 
Q 3072 1388 3072 1006 
z
" transform="scale(0.015625)"/>
     </defs>
     <use xlink:href="#Verdana-47"/>
     <use xlink:href="#Verdana-50" transform="translate(77.539062 0)"/>
     <use xlink:href="#Verdana-54" transform="translate(137.841797 0)"/>
     <use xlink:href="#Verdana-20" transform="translate(199.462891 0)"/>
     <use xlink:href="#Verdana-52" transform="translate(234.619141 0)"/>
     <use xlink:href="#Verdana-65" transform="translate(301.650391 0)"/>
     <use xlink:href="#Verdana-6c" transform="translate(361.220703 0)"/>
     <use xlink:href="#Verdana-65" transform="translate(388.662109 0)"/>
     <use xlink:href="#Verdana-61" transform="translate(448.232422 0)"/>
     <use xlink:href="#Verdana-73" transform="translate(508.291016 0)"/>
     <use xlink:href="#Verdana-65" transform="translate(560.390625 0)"/>
    </g>
   </g>
  </g>
 </g>
 <defs>
  <clipPath id="p01dddcbadf">
   <rect x="37.335938" y="9.859453" width="185.661818" height="133.056"/>
  </clipPath>
 </defs>
</svg>
