<?xml version="1.0" encoding="utf-8" standalone="no"?>
<!DOCTYPE svg PUBLIC "-//W3C//DTD SVG 1.1//EN"
  "http://www.w3.org/Graphics/SVG/1.1/DTD/svg11.dtd">
<svg xmlns:xlink="http://www.w3.org/1999/xlink" width="245.453381pt" height="161.183656pt" viewBox="0 0 245.453381 161.183656" xmlns="http://www.w3.org/2000/svg" version="1.1">
 <metadata>
  <rdf:RDF xmlns:dc="http://purl.org/dc/elements/1.1/" xmlns:cc="http://creativecommons.org/ns#" xmlns:rdf="http://www.w3.org/1999/02/22-rdf-syntax-ns#">
   <cc:Work>
    <dc:type rdf:resource="http://purl.org/dc/dcmitype/StillImage"/>
    <dc:date>2026-05-30T23:55:03.110409</dc:date>
    <dc:format>image/svg+xml</dc:format>
    <dc:creator>
     <cc:Agent>
      <dc:title>Matplotlib v3.10.9, https://matplotlib.org/</dc:title>
     </cc:Agent>
    </dc:creator>
   </cc:Work>
  </rdf:RDF>
 </metadata>
 <defs>
  <style type="text/css">*{stroke-linejoin: round; stroke-linecap: butt}</style>
 </defs>
 <g id="figure_1">
  <g id="patch_1">
   <path d="M 0 161.183656 
L 245.453381 161.183656 
L 245.453381 0 
L 0 0 
z
" style="fill: #ffffff"/>
  </g>
  <g id="axes_1">
   <g id="patch_2">
    <path d="M 52.591563 140.256 
L 238.253381 140.256 
L 238.253381 7.2 
L 52.591563 7.2 
z
" style="fill: #ffffff"/>
   </g>
   <g id="matplotlib.axis_1">
    <g id="xtick_1">
     <g id="line2d_1">
      <path d="M 61.030736 140.256 
L 61.030736 7.2 
" clip-path="url(#pd1e63b8954)" style="fill: none; stroke-dasharray: 2,1; stroke-dashoffset: 0; stroke: #cccccc; stroke-opacity: 0.9; stroke-width: 0.5"/>
     </g>
     <g id="line2d_2">
      <defs>
       <path id="m56a85798af" d="M 0 0 
L 0 3.5 
" style="stroke: #000000; stroke-width: 0.8"/>
      </defs>
      <g>
       <use xlink:href="#m56a85798af" x="61.030736" y="140.256" style="stroke: #000000; stroke-width: 0.8"/>
      </g>
     </g>
     <g id="text_1">
      <!-- 2020 -->
      <g transform="translate(52.129799 152.574906) scale(0.07 -0.07)">
       <defs>
        <path id="Verdana-32" d="M 3653 0 
L 503 0 
L 503 653 
Q 831 934 1161 1215 
Q 1491 1497 1775 1775 
Q 2375 2356 2597 2698 
Q 2819 3041 2819 3438 
Q 2819 3800 2580 4004 
Q 2341 4209 1913 4209 
Q 1628 4209 1297 4109 
Q 966 4009 650 3803 
L 619 3803 
L 619 4459 
Q 841 4569 1211 4659 
Q 1581 4750 1928 4750 
Q 2644 4750 3050 4404 
Q 3456 4059 3456 3469 
Q 3456 3203 3389 2973 
Q 3322 2744 3191 2538 
Q 3069 2344 2905 2156 
Q 2741 1969 2506 1741 
Q 2172 1413 1815 1105 
Q 1459 797 1150 534 
L 3653 534 
L 3653 0 
z
" transform="scale(0.015625)"/>
        <path id="Verdana-30" d="M 3647 2328 
Q 3647 1075 3255 489 
Q 2863 -97 2038 -97 
Q 1200 -97 814 497 
Q 428 1091 428 2322 
Q 428 3563 818 4155 
Q 1209 4747 2038 4747 
Q 2875 4747 3261 4145 
Q 3647 3544 3647 2328 
z
M 2825 909 
Q 2934 1163 2973 1505 
Q 3013 1847 3013 2328 
Q 3013 2803 2973 3153 
Q 2934 3503 2822 3747 
Q 2713 3988 2523 4109 
Q 2334 4231 2038 4231 
Q 1744 4231 1551 4109 
Q 1359 3988 1247 3741 
Q 1141 3509 1102 3137 
Q 1063 2766 1063 2322 
Q 1063 1834 1097 1506 
Q 1131 1178 1244 919 
Q 1347 675 1536 547 
Q 1725 419 2038 419 
Q 2331 419 2525 541 
Q 2719 663 2825 909 
z
" transform="scale(0.015625)"/>
       </defs>
       <use xlink:href="#Verdana-32"/>
       <use xlink:href="#Verdana-30" transform="translate(63.574219 0)"/>
       <use xlink:href="#Verdana-32" transform="translate(127.148438 0)"/>
       <use xlink:href="#Verdana-30" transform="translate(190.722656 0)"/>
      </g>
     </g>
    </g>
    <g id="xtick_2">
     <g id="line2d_3">
      <path d="M 88.473984 140.256 
L 88.473984 7.2 
" clip-path="url(#pd1e63b8954)" style="fill: none; stroke-dasharray: 2,1; stroke-dashoffset: 0; stroke: #cccccc; stroke-opacity: 0.9; stroke-width: 0.5"/>
     </g>
     <g id="line2d_4">
      <g>
       <use xlink:href="#m56a85798af" x="88.473984" y="140.256" style="stroke: #000000; stroke-width: 0.8"/>
      </g>
     </g>
     <g id="text_2">
      <!-- 2021 -->
      <g transform="translate(79.573046 152.574906) scale(0.07 -0.07)">
       <defs>
        <path id="Verdana-31" d="M 3388 0 
L 869 0 
L 869 475 
L 1838 475 
L 1838 3594 
L 869 3594 
L 869 4019 
Q 1066 4019 1291 4051 
Q 1516 4084 1631 4147 
Q 1775 4225 1858 4345 
Q 1941 4466 1953 4669 
L 2438 4669 
L 2438 475 
L 3388 475 
L 3388 0 
z
" transform="scale(0.015625)"/>
       </defs>
       <use xlink:href="#Verdana-32"/>
       <use xlink:href="#Verdana-30" transform="translate(63.574219 0)"/>
       <use xlink:href="#Verdana-32" transform="translate(127.148438 0)"/>
       <use xlink:href="#Verdana-31" transform="translate(190.722656 0)"/>
      </g>
     </g>
    </g>
    <g id="xtick_3">
     <g id="line2d_5">
      <path d="M 115.84225 140.256 
L 115.84225 7.2 
" clip-path="url(#pd1e63b8954)" style="fill: none; stroke-dasharray: 2,1; stroke-dashoffset: 0; stroke: #cccccc; stroke-opacity: 0.9; stroke-width: 0.5"/>
     </g>
     <g id="line2d_6">
      <g>
       <use xlink:href="#m56a85798af" x="115.84225" y="140.256" style="stroke: #000000; stroke-width: 0.8"/>
      </g>
     </g>
     <g id="text_3">
      <!-- 2022 -->
      <g transform="translate(106.941312 152.574906) scale(0.07 -0.07)">
       <use xlink:href="#Verdana-32"/>
       <use xlink:href="#Verdana-30" transform="translate(63.574219 0)"/>
       <use xlink:href="#Verdana-32" transform="translate(127.148438 0)"/>
       <use xlink:href="#Verdana-32" transform="translate(190.722656 0)"/>
      </g>
     </g>
    </g>
    <g id="xtick_4">
     <g id="line2d_7">
      <path d="M 143.210516 140.256 
L 143.210516 7.2 
" clip-path="url(#pd1e63b8954)" style="fill: none; stroke-dasharray: 2,1; stroke-dashoffset: 0; stroke: #cccccc; stroke-opacity: 0.9; stroke-width: 0.5"/>
     </g>
     <g id="line2d_8">
      <g>
       <use xlink:href="#m56a85798af" x="143.210516" y="140.256" style="stroke: #000000; stroke-width: 0.8"/>
      </g>
     </g>
     <g id="text_4">
      <!-- 2023 -->
      <g transform="translate(134.309578 152.574906) scale(0.07 -0.07)">
       <defs>
        <path id="Verdana-33" d="M 3244 2241 
Q 3394 2106 3491 1903 
Q 3588 1700 3588 1378 
Q 3588 1059 3472 793 
Q 3356 528 3147 331 
Q 2913 113 2595 8 
Q 2278 -97 1900 -97 
Q 1513 -97 1138 -4 
Q 763 88 522 197 
L 522 850 
L 569 850 
Q 834 675 1193 559 
Q 1553 444 1888 444 
Q 2084 444 2306 509 
Q 2528 575 2666 703 
Q 2809 841 2879 1006 
Q 2950 1172 2950 1425 
Q 2950 1675 2870 1839 
Q 2791 2003 2650 2097 
Q 2509 2194 2309 2230 
Q 2109 2266 1878 2266 
L 1597 2266 
L 1597 2784 
L 1816 2784 
Q 2291 2784 2573 2982 
Q 2856 3181 2856 3563 
Q 2856 3731 2784 3857 
Q 2713 3984 2584 4066 
Q 2450 4147 2297 4178 
Q 2144 4209 1950 4209 
Q 1653 4209 1318 4103 
Q 984 3997 688 3803 
L 656 3803 
L 656 4456 
Q 878 4566 1248 4658 
Q 1619 4750 1966 4750 
Q 2306 4750 2565 4687 
Q 2825 4625 3034 4488 
Q 3259 4338 3375 4125 
Q 3491 3913 3491 3628 
Q 3491 3241 3217 2952 
Q 2944 2663 2572 2588 
L 2572 2544 
Q 2722 2519 2915 2439 
Q 3109 2359 3244 2241 
z
" transform="scale(0.015625)"/>
       </defs>
       <use xlink:href="#Verdana-32"/>
       <use xlink:href="#Verdana-30" transform="translate(63.574219 0)"/>
       <use xlink:href="#Verdana-32" transform="translate(127.148438 0)"/>
       <use xlink:href="#Verdana-33" transform="translate(190.722656 0)"/>
      </g>
     </g>
    </g>
    <g id="xtick_5">
     <g id="line2d_9">
      <path d="M 170.578782 140.256 
L 170.578782 7.2 
" clip-path="url(#pd1e63b8954)" style="fill: none; stroke-dasharray: 2,1; stroke-dashoffset: 0; stroke: #cccccc; stroke-opacity: 0.9; stroke-width: 0.5"/>
     </g>
     <g id="line2d_10">
      <g>
       <use xlink:href="#m56a85798af" x="170.578782" y="140.256" style="stroke: #000000; stroke-width: 0.8"/>
      </g>
     </g>
     <g id="text_5">
      <!-- 2024 -->
      <g transform="translate(161.677844 152.574906) scale(0.07 -0.07)">
       <defs>
        <path id="Verdana-34" d="M 3759 1309 
L 3069 1309 
L 3069 0 
L 2469 0 
L 2469 1309 
L 241 1309 
L 241 2028 
L 2494 4653 
L 3069 4653 
L 3069 1809 
L 3759 1809 
L 3759 1309 
z
M 2469 1809 
L 2469 3909 
L 666 1809 
L 2469 1809 
z
" transform="scale(0.015625)"/>
       </defs>
       <use xlink:href="#Verdana-32"/>
       <use xlink:href="#Verdana-30" transform="translate(63.574219 0)"/>
       <use xlink:href="#Verdana-32" transform="translate(127.148438 0)"/>
       <use xlink:href="#Verdana-34" transform="translate(190.722656 0)"/>
      </g>
     </g>
    </g>
    <g id="xtick_6">
     <g id="line2d_11">
      <path d="M 198.02203 140.256 
L 198.02203 7.2 
" clip-path="url(#pd1e63b8954)" style="fill: none; stroke-dasharray: 2,1; stroke-dashoffset: 0; stroke: #cccccc; stroke-opacity: 0.9; stroke-width: 0.5"/>
     </g>
     <g id="line2d_12">
      <g>
       <use xlink:href="#m56a85798af" x="198.02203" y="140.256" style="stroke: #000000; stroke-width: 0.8"/>
      </g>
     </g>
     <g id="text_6">
      <!-- 2025 -->
      <g transform="translate(189.121092 152.574906) scale(0.07 -0.07)">
       <defs>
        <path id="Verdana-35" d="M 3616 1478 
Q 3616 1153 3497 856 
Q 3378 559 3172 356 
Q 2947 138 2636 20 
Q 2325 -97 1916 -97 
Q 1534 -97 1181 -17 
Q 828 63 584 175 
L 584 834 
L 628 834 
Q 884 672 1228 558 
Q 1572 444 1903 444 
Q 2125 444 2333 506 
Q 2541 569 2703 725 
Q 2841 859 2911 1046 
Q 2981 1234 2981 1481 
Q 2981 1722 2898 1887 
Q 2816 2053 2669 2153 
Q 2506 2272 2273 2320 
Q 2041 2369 1753 2369 
Q 1478 2369 1223 2331 
Q 969 2294 784 2256 
L 784 4653 
L 3584 4653 
L 3584 4106 
L 1388 4106 
L 1388 2869 
Q 1522 2881 1662 2887 
Q 1803 2894 1906 2894 
Q 2284 2894 2568 2830 
Q 2853 2766 3091 2603 
Q 3341 2431 3478 2159 
Q 3616 1888 3616 1478 
z
" transform="scale(0.015625)"/>
       </defs>
       <use xlink:href="#Verdana-32"/>
       <use xlink:href="#Verdana-30" transform="translate(63.574219 0)"/>
       <use xlink:href="#Verdana-32" transform="translate(127.148438 0)"/>
       <use xlink:href="#Verdana-35" transform="translate(190.722656 0)"/>
      </g>
     </g>
    </g>
    <g id="xtick_7">
     <g id="line2d_13">
      <path d="M 225.390296 140.256 
L 225.390296 7.2 
" clip-path="url(#pd1e63b8954)" style="fill: none; stroke-dasharray: 2,1; stroke-dashoffset: 0; stroke: #cccccc; stroke-opacity: 0.9; stroke-width: 0.5"/>
     </g>
     <g id="line2d_14">
      <g>
       <use xlink:href="#m56a85798af" x="225.390296" y="140.256" style="stroke: #000000; stroke-width: 0.8"/>
      </g>
     </g>
     <g id="text_7">
      <!-- 2026 -->
      <g transform="translate(216.489358 152.574906) scale(0.07 -0.07)">
       <defs>
        <path id="Verdana-36" d="M 3722 1509 
Q 3722 800 3255 351 
Q 2788 -97 2109 -97 
Q 1766 -97 1484 9 
Q 1203 116 988 325 
Q 719 584 573 1012 
Q 428 1441 428 2044 
Q 428 2663 561 3141 
Q 694 3619 984 3991 
Q 1259 4344 1693 4542 
Q 2128 4741 2706 4741 
Q 2891 4741 3016 4725 
Q 3141 4709 3269 4669 
L 3269 4072 
L 3238 4072 
Q 3150 4119 2973 4161 
Q 2797 4203 2613 4203 
Q 1941 4203 1541 3783 
Q 1141 3363 1075 2647 
Q 1338 2806 1592 2889 
Q 1847 2972 2181 2972 
Q 2478 2972 2704 2917 
Q 2931 2863 3169 2697 
Q 3444 2506 3583 2215 
Q 3722 1925 3722 1509 
z
M 3088 1484 
Q 3088 1775 3002 1965 
Q 2916 2156 2719 2297 
Q 2575 2397 2400 2428 
Q 2225 2459 2034 2459 
Q 1769 2459 1541 2396 
Q 1313 2334 1072 2203 
Q 1066 2134 1062 2070 
Q 1059 2006 1059 1909 
Q 1059 1416 1161 1130 
Q 1263 844 1441 678 
Q 1584 541 1751 477 
Q 1919 413 2116 413 
Q 2569 413 2828 689 
Q 3088 966 3088 1484 
z
" transform="scale(0.015625)"/>
       </defs>
       <use xlink:href="#Verdana-32"/>
       <use xlink:href="#Verdana-30" transform="translate(63.574219 0)"/>
       <use xlink:href="#Verdana-32" transform="translate(127.148438 0)"/>
       <use xlink:href="#Verdana-36" transform="translate(190.722656 0)"/>
      </g>
     </g>
    </g>
   </g>
   <g id="matplotlib.axis_2">
    <g id="ytick_1">
     <g id="line2d_15">
      <path d="M 52.591563 134.208 
L 238.253381 134.208 
" clip-path="url(#pd1e63b8954)" style="fill: none; stroke-dasharray: 2,1; stroke-dashoffset: 0; stroke: #cccccc; stroke-opacity: 0.9; stroke-width: 0.5"/>
     </g>
     <g id="line2d_16">
      <defs>
       <path id="mb8009cce6c" d="M 0 0 
L -3.5 0 
" style="stroke: #000000; stroke-width: 0.8"/>
      </defs>
      <g>
       <use xlink:href="#mb8009cce6c" x="52.591563" y="134.208" style="stroke: #000000; stroke-width: 0.8"/>
      </g>
     </g>
     <g id="text_8">
      <!-- 0 -->
      <g transform="translate(41.141094 136.867453) scale(0.07 -0.07)">
       <use xlink:href="#Verdana-30"/>
      </g>
     </g>
    </g>
    <g id="ytick_2">
     <g id="line2d_17">
      <path d="M 52.591563 114.539547 
L 238.253381 114.539547 
" clip-path="url(#pd1e63b8954)" style="fill: none; stroke-dasharray: 2,1; stroke-dashoffset: 0; stroke: #cccccc; stroke-opacity: 0.9; stroke-width: 0.5"/>
     </g>
     <g id="line2d_18">
      <g>
       <use xlink:href="#mb8009cce6c" x="52.591563" y="114.539547" style="stroke: #000000; stroke-width: 0.8"/>
      </g>
     </g>
     <g id="text_9">
      <!-- 20000 -->
      <g transform="translate(23.339219 117.199001) scale(0.07 -0.07)">
       <use xlink:href="#Verdana-32"/>
       <use xlink:href="#Verdana-30" transform="translate(63.574219 0)"/>
       <use xlink:href="#Verdana-30" transform="translate(127.148438 0)"/>
       <use xlink:href="#Verdana-30" transform="translate(190.722656 0)"/>
       <use xlink:href="#Verdana-30" transform="translate(254.296875 0)"/>
      </g>
     </g>
    </g>
    <g id="ytick_3">
     <g id="line2d_19">
      <path d="M 52.591563 94.871095 
L 238.253381 94.871095 
" clip-path="url(#pd1e63b8954)" style="fill: none; stroke-dasharray: 2,1; stroke-dashoffset: 0; stroke: #cccccc; stroke-opacity: 0.9; stroke-width: 0.5"/>
     </g>
     <g id="line2d_20">
      <g>
       <use xlink:href="#mb8009cce6c" x="52.591563" y="94.871095" style="stroke: #000000; stroke-width: 0.8"/>
      </g>
     </g>
     <g id="text_10">
      <!-- 40000 -->
      <g transform="translate(23.339219 97.530548) scale(0.07 -0.07)">
       <use xlink:href="#Verdana-34"/>
       <use xlink:href="#Verdana-30" transform="translate(63.574219 0)"/>
       <use xlink:href="#Verdana-30" transform="translate(127.148438 0)"/>
       <use xlink:href="#Verdana-30" transform="translate(190.722656 0)"/>
       <use xlink:href="#Verdana-30" transform="translate(254.296875 0)"/>
      </g>
     </g>
    </g>
    <g id="ytick_4">
     <g id="line2d_21">
      <path d="M 52.591563 75.202642 
L 238.253381 75.202642 
" clip-path="url(#pd1e63b8954)" style="fill: none; stroke-dasharray: 2,1; stroke-dashoffset: 0; stroke: #cccccc; stroke-opacity: 0.9; stroke-width: 0.5"/>
     </g>
     <g id="line2d_22">
      <g>
       <use xlink:href="#mb8009cce6c" x="52.591563" y="75.202642" style="stroke: #000000; stroke-width: 0.8"/>
      </g>
     </g>
     <g id="text_11">
      <!-- 60000 -->
      <g transform="translate(23.339219 77.862095) scale(0.07 -0.07)">
       <use xlink:href="#Verdana-36"/>
       <use xlink:href="#Verdana-30" transform="translate(63.574219 0)"/>
       <use xlink:href="#Verdana-30" transform="translate(127.148438 0)"/>
       <use xlink:href="#Verdana-30" transform="translate(190.722656 0)"/>
       <use xlink:href="#Verdana-30" transform="translate(254.296875 0)"/>
      </g>
     </g>
    </g>
    <g id="ytick_5">
     <g id="line2d_23">
      <path d="M 52.591563 55.53419 
L 238.253381 55.53419 
" clip-path="url(#pd1e63b8954)" style="fill: none; stroke-dasharray: 2,1; stroke-dashoffset: 0; stroke: #cccccc; stroke-opacity: 0.9; stroke-width: 0.5"/>
     </g>
     <g id="line2d_24">
      <g>
       <use xlink:href="#mb8009cce6c" x="52.591563" y="55.53419" style="stroke: #000000; stroke-width: 0.8"/>
      </g>
     </g>
     <g id="text_12">
      <!-- 80000 -->
      <g transform="translate(23.339219 58.193643) scale(0.07 -0.07)">
       <defs>
        <path id="Verdana-38" d="M 3688 1297 
Q 3688 694 3217 294 
Q 2747 -106 2034 -106 
Q 1278 -106 829 284 
Q 381 675 381 1284 
Q 381 1672 606 1986 
Q 831 2300 1241 2484 
L 1241 2503 
Q 866 2703 686 2940 
Q 506 3178 506 3534 
Q 506 4059 937 4409 
Q 1369 4759 2034 4759 
Q 2731 4759 3147 4425 
Q 3563 4091 3563 3575 
Q 3563 3259 3366 2954 
Q 3169 2650 2788 2478 
L 2788 2459 
Q 3225 2272 3456 1997 
Q 3688 1722 3688 1297 
z
M 2947 3569 
Q 2947 3903 2689 4101 
Q 2431 4300 2031 4300 
Q 1638 4300 1386 4112 
Q 1134 3925 1134 3606 
Q 1134 3381 1261 3217 
Q 1388 3053 1644 2925 
Q 1759 2869 1976 2778 
Q 2194 2688 2400 2628 
Q 2709 2834 2828 3056 
Q 2947 3278 2947 3569 
z
M 3044 1238 
Q 3044 1525 2917 1698 
Q 2791 1872 2422 2047 
Q 2275 2116 2100 2175 
Q 1925 2234 1634 2341 
Q 1353 2188 1183 1925 
Q 1013 1663 1013 1331 
Q 1013 909 1303 634 
Q 1594 359 2041 359 
Q 2497 359 2770 593 
Q 3044 828 3044 1238 
z
" transform="scale(0.015625)"/>
       </defs>
       <use xlink:href="#Verdana-38"/>
       <use xlink:href="#Verdana-30" transform="translate(63.574219 0)"/>
       <use xlink:href="#Verdana-30" transform="translate(127.148438 0)"/>
       <use xlink:href="#Verdana-30" transform="translate(190.722656 0)"/>
       <use xlink:href="#Verdana-30" transform="translate(254.296875 0)"/>
      </g>
     </g>
    </g>
    <g id="ytick_6">
     <g id="line2d_25">
      <path d="M 52.591563 35.865737 
L 238.253381 35.865737 
" clip-path="url(#pd1e63b8954)" style="fill: none; stroke-dasharray: 2,1; stroke-dashoffset: 0; stroke: #cccccc; stroke-opacity: 0.9; stroke-width: 0.5"/>
     </g>
     <g id="line2d_26">
      <g>
       <use xlink:href="#mb8009cce6c" x="52.591563" y="35.865737" style="stroke: #000000; stroke-width: 0.8"/>
      </g>
     </g>
     <g id="text_13">
      <!-- 100000 -->
      <g transform="translate(18.88875 38.52519) scale(0.07 -0.07)">
       <use xlink:href="#Verdana-31"/>
       <use xlink:href="#Verdana-30" transform="translate(63.574219 0)"/>
       <use xlink:href="#Verdana-30" transform="translate(127.148438 0)"/>
       <use xlink:href="#Verdana-30" transform="translate(190.722656 0)"/>
       <use xlink:href="#Verdana-30" transform="translate(254.296875 0)"/>
       <use xlink:href="#Verdana-30" transform="translate(317.871094 0)"/>
      </g>
     </g>
    </g>
    <g id="ytick_7">
     <g id="line2d_27">
      <path d="M 52.591563 16.197284 
L 238.253381 16.197284 
" clip-path="url(#pd1e63b8954)" style="fill: none; stroke-dasharray: 2,1; stroke-dashoffset: 0; stroke: #cccccc; stroke-opacity: 0.9; stroke-width: 0.5"/>
     </g>
     <g id="line2d_28">
      <g>
       <use xlink:href="#mb8009cce6c" x="52.591563" y="16.197284" style="stroke: #000000; stroke-width: 0.8"/>
      </g>
     </g>
     <g id="text_14">
      <!-- 120000 -->
      <g transform="translate(18.88875 18.856738) scale(0.07 -0.07)">
       <use xlink:href="#Verdana-31"/>
       <use xlink:href="#Verdana-32" transform="translate(63.574219 0)"/>
       <use xlink:href="#Verdana-30" transform="translate(127.148438 0)"/>
       <use xlink:href="#Verdana-30" transform="translate(190.722656 0)"/>
       <use xlink:href="#Verdana-30" transform="translate(254.296875 0)"/>
       <use xlink:href="#Verdana-30" transform="translate(317.871094 0)"/>
      </g>
     </g>
    </g>
    <g id="text_15">
     <!-- Distinct Askers per Month -->
     <g transform="translate(13.27875 131.787375) rotate(-90) scale(0.08 -0.08)">
      <defs>
       <path id="Verdana-Bold-44" d="M 4991 2322 
Q 4991 1672 4694 1158 
Q 4397 644 3944 369 
Q 3603 163 3197 81 
Q 2791 0 2234 0 
L 594 0 
L 594 4653 
L 2281 4653 
Q 2850 4653 3262 4558 
Q 3675 4463 3956 4288 
Q 4438 3994 4714 3495 
Q 4991 2997 4991 2322 
z
M 3750 2331 
Q 3750 2791 3583 3117 
Q 3416 3444 3053 3628 
Q 2869 3719 2676 3751 
Q 2484 3784 2097 3784 
L 1794 3784 
L 1794 872 
L 2097 872 
Q 2525 872 2725 911 
Q 2925 950 3116 1053 
Q 3444 1241 3597 1555 
Q 3750 1869 3750 2331 
z
" transform="scale(0.015625)"/>
       <path id="Verdana-Bold-69" d="M 1656 0 
L 531 0 
L 531 3509 
L 1656 3509 
L 1656 0 
z
M 1688 4009 
L 500 4009 
L 500 4863 
L 1688 4863 
L 1688 4009 
z
" transform="scale(0.015625)"/>
       <path id="Verdana-Bold-73" d="M 3581 1113 
Q 3581 569 3093 236 
Q 2606 -97 1759 -97 
Q 1291 -97 909 -9 
Q 528 78 297 184 
L 297 1109 
L 400 1109 
Q 484 1050 595 979 
Q 706 909 909 828 
Q 1084 756 1306 704 
Q 1528 653 1781 653 
Q 2113 653 2272 726 
Q 2431 800 2431 944 
Q 2431 1072 2337 1130 
Q 2244 1188 1981 1241 
Q 1856 1269 1642 1301 
Q 1428 1334 1253 1381 
Q 775 1506 544 1770 
Q 313 2034 313 2428 
Q 313 2934 792 3270 
Q 1272 3606 2103 3606 
Q 2497 3606 2858 3526 
Q 3219 3447 3422 3356 
L 3422 2469 
L 3325 2469 
Q 3075 2641 2754 2748 
Q 2434 2856 2106 2856 
Q 1834 2856 1648 2781 
Q 1463 2706 1463 2569 
Q 1463 2444 1547 2378 
Q 1631 2313 1944 2247 
Q 2116 2213 2314 2180 
Q 2513 2147 2713 2097 
Q 3156 1981 3368 1732 
Q 3581 1484 3581 1113 
z
" transform="scale(0.015625)"/>
       <path id="Verdana-Bold-74" d="M 2775 31 
Q 2594 -16 2391 -42 
Q 2188 -69 1894 -69 
Q 1238 -69 917 197 
Q 597 463 597 1106 
L 597 2747 
L 134 2747 
L 134 3509 
L 597 3509 
L 597 4513 
L 1722 4513 
L 1722 3509 
L 2775 3509 
L 2775 2747 
L 1722 2747 
L 1722 1503 
Q 1722 1319 1725 1181 
Q 1728 1044 1775 934 
Q 1819 825 1930 761 
Q 2041 697 2253 697 
Q 2341 697 2483 734 
Q 2625 772 2681 803 
L 2775 803 
L 2775 31 
z
" transform="scale(0.015625)"/>
       <path id="Verdana-Bold-6e" d="M 4056 0 
L 2925 0 
L 2925 1741 
Q 2925 1953 2903 2164 
Q 2881 2375 2828 2475 
Q 2766 2591 2645 2644 
Q 2525 2697 2309 2697 
Q 2156 2697 1998 2647 
Q 1841 2597 1656 2488 
L 1656 0 
L 531 0 
L 531 3509 
L 1656 3509 
L 1656 3122 
Q 1956 3356 2232 3481 
Q 2509 3606 2847 3606 
Q 3416 3606 3736 3275 
Q 4056 2944 4056 2284 
L 4056 0 
z
" transform="scale(0.015625)"/>
       <path id="Verdana-Bold-63" d="M 2359 -94 
Q 1900 -94 1520 15 
Q 1141 125 859 353 
Q 581 581 428 928 
Q 275 1275 275 1741 
Q 275 2231 439 2587 
Q 603 2944 897 3178 
Q 1181 3400 1553 3503 
Q 1925 3606 2325 3606 
Q 2684 3606 2987 3528 
Q 3291 3450 3553 3325 
L 3553 2366 
L 3394 2366 
Q 3328 2422 3236 2497 
Q 3144 2572 3009 2644 
Q 2881 2713 2728 2758 
Q 2575 2803 2372 2803 
Q 1922 2803 1680 2517 
Q 1438 2231 1438 1741 
Q 1438 1234 1686 971 
Q 1934 709 2391 709 
Q 2603 709 2773 757 
Q 2944 806 3056 872 
Q 3163 934 3244 1003 
Q 3325 1072 3394 1138 
L 3553 1138 
L 3553 178 
Q 3288 53 2998 -20 
Q 2709 -94 2359 -94 
z
" transform="scale(0.015625)"/>
       <path id="Verdana-Bold-20" transform="scale(0.015625)"/>
       <path id="Verdana-Bold-41" d="M 4894 0 
L 3653 0 
L 3331 941 
L 1606 941 
L 1284 0 
L 75 0 
L 1794 4653 
L 3175 4653 
L 4894 0 
z
M 3041 1794 
L 2469 3463 
L 1897 1794 
L 3041 1794 
z
" transform="scale(0.015625)"/>
       <path id="Verdana-Bold-6b" d="M 4256 0 
L 2947 0 
L 1963 1528 
L 1656 1156 
L 1656 0 
L 531 0 
L 531 4863 
L 1656 4863 
L 1656 1959 
L 2869 3509 
L 4166 3509 
L 2903 1997 
L 4256 0 
z
" transform="scale(0.015625)"/>
       <path id="Verdana-Bold-65" d="M 3988 1547 
L 1413 1547 
Q 1438 1134 1727 915 
Q 2016 697 2578 697 
Q 2934 697 3268 825 
Q 3603 953 3797 1100 
L 3922 1100 
L 3922 197 
Q 3541 44 3203 -25 
Q 2866 -94 2456 -94 
Q 1400 -94 837 381 
Q 275 856 275 1734 
Q 275 2603 808 3111 
Q 1341 3619 2269 3619 
Q 3125 3619 3556 3186 
Q 3988 2753 3988 1941 
L 3988 1547 
z
M 2869 2206 
Q 2859 2559 2693 2737 
Q 2528 2916 2178 2916 
Q 1853 2916 1643 2747 
Q 1434 2578 1409 2206 
L 2869 2206 
z
" transform="scale(0.015625)"/>
       <path id="Verdana-Bold-72" d="M 3075 2438 
L 2975 2438 
Q 2903 2463 2743 2475 
Q 2584 2488 2478 2488 
Q 2238 2488 2053 2456 
Q 1869 2425 1656 2350 
L 1656 0 
L 531 0 
L 531 3509 
L 1656 3509 
L 1656 2994 
Q 2028 3313 2303 3417 
Q 2578 3522 2809 3522 
Q 2869 3522 2944 3519 
Q 3019 3516 3075 3509 
L 3075 2438 
z
" transform="scale(0.015625)"/>
       <path id="Verdana-Bold-70" d="M 4194 1803 
Q 4194 1369 4061 1012 
Q 3928 656 3713 425 
Q 3488 181 3203 56 
Q 2919 -69 2594 -69 
Q 2294 -69 2084 -5 
Q 1875 59 1656 175 
L 1656 -1288 
L 531 -1288 
L 531 3509 
L 1656 3509 
L 1656 3144 
Q 1916 3350 2186 3478 
Q 2456 3606 2809 3606 
Q 3466 3606 3830 3125 
Q 4194 2644 4194 1803 
z
M 3034 1781 
Q 3034 2294 2859 2525 
Q 2684 2756 2306 2756 
Q 2147 2756 1978 2707 
Q 1809 2659 1656 2569 
L 1656 803 
Q 1769 759 1897 746 
Q 2025 734 2150 734 
Q 2597 734 2815 995 
Q 3034 1256 3034 1781 
z
" transform="scale(0.015625)"/>
       <path id="Verdana-Bold-4d" d="M 5472 0 
L 4278 0 
L 4278 3116 
L 3416 1094 
L 2588 1094 
L 1725 3116 
L 1725 0 
L 594 0 
L 594 4653 
L 1988 4653 
L 3034 2319 
L 4078 4653 
L 5472 4653 
L 5472 0 
z
" transform="scale(0.015625)"/>
       <path id="Verdana-Bold-6f" d="M 4119 1753 
Q 4119 888 3614 389 
Q 3109 -109 2197 -109 
Q 1284 -109 779 389 
Q 275 888 275 1753 
Q 275 2625 783 3122 
Q 1291 3619 2197 3619 
Q 3116 3619 3617 3119 
Q 4119 2619 4119 1753 
z
M 2734 900 
Q 2844 1034 2898 1223 
Q 2953 1413 2953 1747 
Q 2953 2056 2897 2265 
Q 2841 2475 2741 2600 
Q 2641 2728 2500 2781 
Q 2359 2834 2197 2834 
Q 2034 2834 1907 2790 
Q 1781 2747 1666 2616 
Q 1563 2494 1502 2281 
Q 1441 2069 1441 1747 
Q 1441 1459 1494 1248 
Q 1547 1038 1650 909 
Q 1750 788 1889 731 
Q 2028 675 2206 675 
Q 2359 675 2498 726 
Q 2638 778 2734 900 
z
" transform="scale(0.015625)"/>
       <path id="Verdana-Bold-68" d="M 4056 0 
L 2925 0 
L 2925 1741 
Q 2925 1953 2903 2164 
Q 2881 2375 2828 2475 
Q 2766 2591 2645 2644 
Q 2525 2697 2309 2697 
Q 2156 2697 1998 2647 
Q 1841 2597 1656 2488 
L 1656 0 
L 531 0 
L 531 4863 
L 1656 4863 
L 1656 3122 
Q 1956 3356 2232 3481 
Q 2509 3606 2847 3606 
Q 3416 3606 3736 3275 
Q 4056 2944 4056 2284 
L 4056 0 
z
" transform="scale(0.015625)"/>
      </defs>
      <use xlink:href="#Verdana-Bold-44"/>
      <use xlink:href="#Verdana-Bold-69" transform="translate(83.007812 0)"/>
      <use xlink:href="#Verdana-Bold-73" transform="translate(117.1875 0)"/>
      <use xlink:href="#Verdana-Bold-74" transform="translate(176.513672 0)"/>
      <use xlink:href="#Verdana-Bold-69" transform="translate(222.070312 0)"/>
      <use xlink:href="#Verdana-Bold-6e" transform="translate(256.25 0)"/>
      <use xlink:href="#Verdana-Bold-63" transform="translate(327.490234 0)"/>
      <use xlink:href="#Verdana-Bold-74" transform="translate(386.328125 0)"/>
      <use xlink:href="#Verdana-Bold-20" transform="translate(431.884766 0)"/>
      <use xlink:href="#Verdana-Bold-41" transform="translate(466.064453 0)"/>
      <use xlink:href="#Verdana-Bold-73" transform="translate(543.701172 0)"/>
      <use xlink:href="#Verdana-Bold-6b" transform="translate(603.027344 0)"/>
      <use xlink:href="#Verdana-Bold-65" transform="translate(670.117188 0)"/>
      <use xlink:href="#Verdana-Bold-72" transform="translate(736.523438 0)"/>
      <use xlink:href="#Verdana-Bold-73" transform="translate(786.230469 0)"/>
      <use xlink:href="#Verdana-Bold-20" transform="translate(845.556641 0)"/>
      <use xlink:href="#Verdana-Bold-70" transform="translate(879.736328 0)"/>
      <use xlink:href="#Verdana-Bold-65" transform="translate(949.658203 0)"/>
      <use xlink:href="#Verdana-Bold-72" transform="translate(1016.064453 0)"/>
      <use xlink:href="#Verdana-Bold-20" transform="translate(1065.771484 0)"/>
      <use xlink:href="#Verdana-Bold-4d" transform="translate(1099.951172 0)"/>
      <use xlink:href="#Verdana-Bold-6f" transform="translate(1194.726562 0)"/>
      <use xlink:href="#Verdana-Bold-6e" transform="translate(1263.378906 0)"/>
      <use xlink:href="#Verdana-Bold-74" transform="translate(1334.619141 0)"/>
      <use xlink:href="#Verdana-Bold-68" transform="translate(1380.175781 0)"/>
     </g>
    </g>
   </g>
   <g id="FillBetweenPolyCollection_1">
    <defs>
     <path id="m8de028f51e" d="M 61.030736 -26.975656 
L 61.030736 -124.933401 
L 63.355164 -124.657059 
L 65.529629 -131.838995 
L 67.854057 -146.731947 
L 70.103504 -147.935656 
L 72.427932 -139.416266 
L 74.677378 -135.355714 
L 77.001806 -125.799796 
L 79.326234 -122.513198 
L 81.575681 -122.714799 
L 83.900109 -118.945341 
L 86.149556 -118.486082 
L 88.473984 -122.061807 
L 90.798412 -118.1291 
L 92.897895 -128.000696 
L 95.222323 -120.833512 
L 97.47177 -119.166611 
L 99.796198 -116.121934 
L 102.045644 -112.66717 
L 104.370072 -111.437892 
L 106.694501 -110.679673 
L 108.943947 -110.019797 
L 111.268375 -110.82227 
L 113.517822 -106.60437 
L 115.84225 -111.047473 
L 118.166678 -108.162111 
L 120.266161 -114.637949 
L 122.590589 -108.931148 
L 124.840036 -109.745422 
L 127.164464 -106.626005 
L 129.41391 -105.851068 
L 131.738339 -106.924966 
L 134.062767 -101.602682 
L 136.312213 -103.92356 
L 138.636641 -107.22491 
L 140.886088 -98.482282 
L 143.210516 -99.102822 
L 145.534944 -92.643702 
L 147.634427 -93.580904 
L 149.958855 -80.565306 
L 152.208302 -79.188514 
L 154.53273 -77.357381 
L 156.782177 -76.395594 
L 159.106605 -74.503489 
L 161.431033 -69.19989 
L 163.680479 -69.15662 
L 166.004907 -67.634281 
L 168.254354 -61.811436 
L 170.578782 -65.607447 
L 172.90321 -64.462743 
L 175.077675 -63.586514 
L 177.402103 -61.733746 
L 179.65155 -60.082579 
L 181.975978 -53.732619 
L 184.225424 -53.112079 
L 186.549852 -50.267038 
L 188.87428 -47.848802 
L 191.123727 -46.51528 
L 193.448155 -44.560236 
L 195.697601 -42.234442 
L 198.02203 -42.543236 
L 200.346458 -40.158437 
L 202.445941 -39.812272 
L 204.770369 -37.507129 
L 207.019816 -36.816767 
L 209.344244 -34.845988 
L 211.59369 -33.598024 
L 213.918118 -32.005863 
L 216.242546 -32.323509 
L 218.491993 -31.655765 
L 220.816421 -30.750032 
L 223.065868 -29.936742 
L 225.390296 -29.55419 
L 227.714724 -29.018225 
L 229.814207 -28.722215 
L 229.814207 -26.975656 
L 229.814207 -26.975656 
L 227.714724 -26.975656 
L 225.390296 -26.975656 
L 223.065868 -26.975656 
L 220.816421 -26.975656 
L 218.491993 -26.975656 
L 216.242546 -26.975656 
L 213.918118 -26.975656 
L 211.59369 -26.975656 
L 209.344244 -26.975656 
L 207.019816 -26.975656 
L 204.770369 -26.975656 
L 202.445941 -26.975656 
L 200.346458 -26.975656 
L 198.02203 -26.975656 
L 195.697601 -26.975656 
L 193.448155 -26.975656 
L 191.123727 -26.975656 
L 188.87428 -26.975656 
L 186.549852 -26.975656 
L 184.225424 -26.975656 
L 181.975978 -26.975656 
L 179.65155 -26.975656 
L 177.402103 -26.975656 
L 175.077675 -26.975656 
L 172.90321 -26.975656 
L 170.578782 -26.975656 
L 168.254354 -26.975656 
L 166.004907 -26.975656 
L 163.680479 -26.975656 
L 161.431033 -26.975656 
L 159.106605 -26.975656 
L 156.782177 -26.975656 
L 154.53273 -26.975656 
L 152.208302 -26.975656 
L 149.958855 -26.975656 
L 147.634427 -26.975656 
L 145.534944 -26.975656 
L 143.210516 -26.975656 
L 140.886088 -26.975656 
L 138.636641 -26.975656 
L 136.312213 -26.975656 
L 134.062767 -26.975656 
L 131.738339 -26.975656 
L 129.41391 -26.975656 
L 127.164464 -26.975656 
L 124.840036 -26.975656 
L 122.590589 -26.975656 
L 120.266161 -26.975656 
L 118.166678 -26.975656 
L 115.84225 -26.975656 
L 113.517822 -26.975656 
L 111.268375 -26.975656 
L 108.943947 -26.975656 
L 106.694501 -26.975656 
L 104.370072 -26.975656 
L 102.045644 -26.975656 
L 99.796198 -26.975656 
L 97.47177 -26.975656 
L 95.222323 -26.975656 
L 92.897895 -26.975656 
L 90.798412 -26.975656 
L 88.473984 -26.975656 
L 86.149556 -26.975656 
L 83.900109 -26.975656 
L 81.575681 -26.975656 
L 79.326234 -26.975656 
L 77.001806 -26.975656 
L 74.677378 -26.975656 
L 72.427932 -26.975656 
L 70.103504 -26.975656 
L 67.854057 -26.975656 
L 65.529629 -26.975656 
L 63.355164 -26.975656 
L 61.030736 -26.975656 
z
" style="stroke: #4477aa; stroke-opacity: 0.25"/>
    </defs>
    <g clip-path="url(#pd1e63b8954)">
     <use xlink:href="#m8de028f51e" x="0" y="161.183656" style="fill: #4477aa; fill-opacity: 0.25; stroke: #4477aa; stroke-opacity: 0.25"/>
    </g>
   </g>
   <g id="line2d_29">
    <path d="M 61.030736 36.250255 
L 63.355164 36.526597 
L 65.529629 29.344662 
L 67.854057 14.451709 
L 70.103504 13.248 
L 72.427932 21.76739 
L 74.677378 25.827942 
L 77.001806 35.38386 
L 79.326234 38.670458 
L 81.575681 38.468857 
L 83.900109 42.238316 
L 86.149556 42.697574 
L 88.473984 39.121849 
L 90.798412 43.054556 
L 92.897895 33.18296 
L 95.222323 40.350144 
L 97.47177 42.017046 
L 99.796198 45.061722 
L 102.045644 48.516486 
L 104.370072 49.745764 
L 106.694501 50.503983 
L 108.943947 51.163859 
L 111.268375 50.361387 
L 113.517822 54.579286 
L 115.84225 50.136183 
L 118.166678 53.021545 
L 120.266161 46.545707 
L 122.590589 52.252508 
L 124.840036 51.438234 
L 127.164464 54.557651 
L 129.41391 55.332588 
L 131.738339 54.25869 
L 134.062767 59.580974 
L 136.312213 57.260096 
L 138.636641 53.958747 
L 140.886088 62.701374 
L 143.210516 62.080834 
L 145.534944 68.539954 
L 147.634427 67.602752 
L 149.958855 80.618351 
L 152.208302 81.995142 
L 154.53273 83.826275 
L 156.782177 84.788063 
L 159.106605 86.680168 
L 161.431033 91.983766 
L 163.680479 92.027037 
L 166.004907 93.549375 
L 168.254354 99.37222 
L 170.578782 95.576209 
L 172.90321 96.720913 
L 175.077675 97.597142 
L 177.402103 99.449911 
L 179.65155 101.101077 
L 181.975978 107.451037 
L 184.225424 108.071577 
L 186.549852 110.916618 
L 188.87428 113.334855 
L 191.123727 114.668376 
L 193.448155 116.62342 
L 195.697601 118.949214 
L 198.02203 118.64042 
L 200.346458 121.02522 
L 202.445941 121.371384 
L 204.770369 123.676527 
L 207.019816 124.36689 
L 209.344244 126.337669 
L 211.59369 127.585632 
L 213.918118 129.177793 
L 216.242546 128.860148 
L 218.491993 129.527892 
L 220.816421 130.433624 
L 223.065868 131.246914 
L 225.390296 131.629466 
L 227.714724 132.165431 
L 229.814207 132.461441 
" clip-path="url(#pd1e63b8954)" style="fill: none; stroke: #4477aa; stroke-width: 1.7; stroke-linecap: round"/>
   </g>
   <g id="line2d_30">
    <path d="M 140.811106 140.256 
L 140.811106 7.2 
" clip-path="url(#pd1e63b8954)" style="fill: none; stroke-dasharray: 2.96,1.28; stroke-dashoffset: 0; stroke: #444444; stroke-opacity: 0.9; stroke-width: 0.8"/>
   </g>
   <g id="patch_3">
    <path d="M 52.591563 140.256 
L 52.591563 7.2 
" style="fill: none; stroke: #222222; stroke-width: 0.7; stroke-linejoin: miter; stroke-linecap: square"/>
   </g>
   <g id="patch_4">
    <path d="M 238.253381 140.256 
L 238.253381 7.2 
" style="fill: none; stroke: #222222; stroke-width: 0.7; stroke-linejoin: miter; stroke-linecap: square"/>
   </g>
   <g id="patch_5">
    <path d="M 52.591563 140.256 
L 238.253381 140.256 
" style="fill: none; stroke: #222222; stroke-width: 0.7; stroke-linejoin: miter; stroke-linecap: square"/>
   </g>
   <g id="patch_6">
    <path d="M 52.591563 7.2 
L 238.253381 7.2 
" style="fill: none; stroke: #222222; stroke-width: 0.7; stroke-linejoin: miter; stroke-linecap: square"/>
   </g>
   <g id="text_16">
    <!-- GPT Release -->
    <g style="fill: #444444" transform="translate(149.130012 54.590586) rotate(-90) scale(0.07 -0.07)">
     <defs>
      <path id="Verdana-47" d="M 4506 344 
Q 4125 169 3673 39 
Q 3222 -91 2800 -91 
Q 2256 -91 1803 59 
Q 1350 209 1031 509 
Q 709 813 534 1267 
Q 359 1722 359 2331 
Q 359 3447 1011 4092 
Q 1663 4738 2800 4738 
Q 3197 4738 3611 4642 
Q 4025 4547 4503 4319 
L 4503 3584 
L 4447 3584 
Q 4350 3659 4165 3781 
Q 3981 3903 3803 3984 
Q 3588 4081 3314 4145 
Q 3041 4209 2694 4209 
Q 1913 4209 1458 3707 
Q 1003 3206 1003 2350 
Q 1003 1447 1478 945 
Q 1953 444 2772 444 
Q 3072 444 3370 503 
Q 3669 563 3894 656 
L 3894 1797 
L 2647 1797 
L 2647 2341 
L 4506 2341 
L 4506 344 
z
" transform="scale(0.015625)"/>
      <path id="Verdana-50" d="M 3669 3247 
Q 3669 2938 3561 2673 
Q 3453 2409 3259 2216 
Q 3019 1975 2691 1854 
Q 2363 1734 1863 1734 
L 1244 1734 
L 1244 0 
L 625 0 
L 625 4653 
L 1888 4653 
Q 2306 4653 2597 4583 
Q 2888 4513 3113 4363 
Q 3378 4184 3523 3918 
Q 3669 3653 3669 3247 
z
M 3025 3231 
Q 3025 3472 2940 3650 
Q 2856 3828 2684 3941 
Q 2534 4038 2342 4080 
Q 2150 4122 1856 4122 
L 1244 4122 
L 1244 2263 
L 1766 2263 
Q 2141 2263 2375 2330 
Q 2609 2397 2756 2544 
Q 2903 2694 2964 2859 
Q 3025 3025 3025 3231 
z
" transform="scale(0.015625)"/>
      <path id="Verdana-54" d="M 3944 4103 
L 2281 4103 
L 2281 0 
L 1663 0 
L 1663 4103 
L 0 4103 
L 0 4653 
L 3944 4653 
L 3944 4103 
z
" transform="scale(0.015625)"/>
      <path id="Verdana-20" transform="scale(0.015625)"/>
      <path id="Verdana-52" d="M 4475 0 
L 3672 0 
L 2116 1850 
L 1244 1850 
L 1244 0 
L 625 0 
L 625 4653 
L 1928 4653 
Q 2350 4653 2631 4598 
Q 2913 4544 3138 4403 
Q 3391 4244 3533 4001 
Q 3675 3759 3675 3388 
Q 3675 2884 3422 2545 
Q 3169 2206 2725 2034 
L 4475 0 
z
M 3028 3344 
Q 3028 3544 2958 3698 
Q 2888 3853 2725 3959 
Q 2591 4050 2406 4086 
Q 2222 4122 1972 4122 
L 1244 4122 
L 1244 2366 
L 1869 2366 
Q 2163 2366 2381 2417 
Q 2600 2469 2753 2609 
Q 2894 2741 2961 2911 
Q 3028 3081 3028 3344 
z
" transform="scale(0.015625)"/>
      <path id="Verdana-65" d="M 3500 1684 
L 928 1684 
Q 928 1363 1025 1123 
Q 1122 884 1291 731 
Q 1453 581 1676 506 
Q 1900 431 2169 431 
Q 2525 431 2886 573 
Q 3247 716 3400 853 
L 3431 853 
L 3431 213 
Q 3134 88 2825 3 
Q 2516 -81 2175 -81 
Q 1306 -81 818 389 
Q 331 859 331 1725 
Q 331 2581 798 3084 
Q 1266 3588 2028 3588 
Q 2734 3588 3117 3175 
Q 3500 2763 3500 2003 
L 3500 1684 
z
M 2928 2134 
Q 2925 2597 2695 2850 
Q 2466 3103 1997 3103 
Q 1525 3103 1245 2825 
Q 966 2547 928 2134 
L 2928 2134 
z
" transform="scale(0.015625)"/>
      <path id="Verdana-6c" d="M 1172 0 
L 584 0 
L 584 4863 
L 1172 4863 
L 1172 0 
z
" transform="scale(0.015625)"/>
      <path id="Verdana-61" d="M 3291 0 
L 2706 0 
L 2706 372 
Q 2628 319 2495 223 
Q 2363 128 2238 72 
Q 2091 0 1900 -48 
Q 1709 -97 1453 -97 
Q 981 -97 653 215 
Q 325 528 325 1013 
Q 325 1409 495 1654 
Q 666 1900 981 2041 
Q 1300 2181 1747 2231 
Q 2194 2281 2706 2306 
L 2706 2397 
Q 2706 2597 2636 2728 
Q 2566 2859 2434 2934 
Q 2309 3006 2134 3031 
Q 1959 3056 1769 3056 
Q 1538 3056 1253 2995 
Q 969 2934 666 2819 
L 634 2819 
L 634 3416 
Q 806 3463 1131 3519 
Q 1456 3575 1772 3575 
Q 2141 3575 2414 3514 
Q 2688 3453 2888 3306 
Q 3084 3163 3187 2934 
Q 3291 2706 3291 2369 
L 3291 0 
z
M 2706 859 
L 2706 1831 
Q 2438 1816 2073 1784 
Q 1709 1753 1497 1694 
Q 1244 1622 1087 1470 
Q 931 1319 931 1053 
Q 931 753 1112 601 
Q 1294 450 1666 450 
Q 1975 450 2231 570 
Q 2488 691 2706 859 
z
" transform="scale(0.015625)"/>
      <path id="Verdana-73" d="M 3072 1006 
Q 3072 528 2676 222 
Q 2281 -84 1597 -84 
Q 1209 -84 886 8 
Q 563 100 344 209 
L 344 869 
L 375 869 
Q 653 659 993 536 
Q 1334 413 1647 413 
Q 2034 413 2253 538 
Q 2472 663 2472 931 
Q 2472 1138 2353 1244 
Q 2234 1350 1897 1425 
Q 1772 1453 1570 1490 
Q 1369 1528 1203 1572 
Q 744 1694 551 1930 
Q 359 2166 359 2509 
Q 359 2725 448 2915 
Q 538 3106 719 3256 
Q 894 3403 1164 3489 
Q 1434 3575 1769 3575 
Q 2081 3575 2401 3498 
Q 2722 3422 2934 3313 
L 2934 2684 
L 2903 2684 
Q 2678 2850 2356 2964 
Q 2034 3078 1725 3078 
Q 1403 3078 1181 2954 
Q 959 2831 959 2588 
Q 959 2372 1094 2263 
Q 1225 2153 1519 2084 
Q 1681 2047 1882 2009 
Q 2084 1972 2219 1941 
Q 2628 1847 2850 1619 
Q 3072 1388 3072 1006 
z
" transform="scale(0.015625)"/>
     </defs>
     <use xlink:href="#Verdana-47"/>
     <use xlink:href="#Verdana-50" transform="translate(77.539062 0)"/>
     <use xlink:href="#Verdana-54" transform="translate(137.841797 0)"/>
     <use xlink:href="#Verdana-20" transform="translate(199.462891 0)"/>
     <use xlink:href="#Verdana-52" transform="translate(234.619141 0)"/>
     <use xlink:href="#Verdana-65" transform="translate(301.650391 0)"/>
     <use xlink:href="#Verdana-6c" transform="translate(361.220703 0)"/>
     <use xlink:href="#Verdana-65" transform="translate(388.662109 0)"/>
     <use xlink:href="#Verdana-61" transform="translate(448.232422 0)"/>
     <use xlink:href="#Verdana-73" transform="translate(508.291016 0)"/>
     <use xlink:href="#Verdana-65" transform="translate(560.390625 0)"/>
    </g>
   </g>
  </g>
 </g>
 <defs>
  <clipPath id="pd1e63b8954">
   <rect x="52.591563" y="7.2" width="185.661818" height="133.056"/>
  </clipPath>
 </defs>
</svg>
